<?xml version="1.0" encoding="UTF-8" standalone="no"?>
<!DOCTYPE svg PUBLIC "-//W3C//DTD SVG 1.1//EN"
 "http://www.w3.org/Graphics/SVG/1.1/DTD/svg11.dtd">
<!-- Generated by graphviz version 2.28.0 (20110509.1543)
 -->
<!-- Title: _anonymous_0 Pages: 1 -->
<svg width="1333pt" height="692pt"
 viewBox="0.00 0.00 1333.00 692.00" xmlns="http://www.w3.org/2000/svg" xmlns:xlink="http://www.w3.org/1999/xlink">
<g id="graph1" class="graph" transform="scale(1 1) rotate(0) translate(4 688)">
<title>_anonymous_0</title>
<polygon fill="white" stroke="white" points="-4,5 -4,-688 1330,-688 1330,5 -4,5"/>
<!-- hg19_100 -->
<g id="node1" class="node"><title>hg19_100</title>
<ellipse fill="none" stroke="black" cx="268" cy="-666" rx="73.2884" ry="18"/>
<text text-anchor="middle" x="268" y="-661.8" font-family="Times,serif" font-size="14.00">input fastq_files</text>
</g>
<!-- hg19_110 -->
<g id="node3" class="node"><title>hg19_110</title>
<ellipse fill="none" stroke="black" cx="49" cy="-306" rx="49.4959" ry="18"/>
<text text-anchor="middle" x="49" y="-301.8" font-family="Times,serif" font-size="14.00">hg19_110</text>
</g>
<!-- hg19_100&#45;&gt;hg19_110 -->
<g id="edge2" class="edge"><title>hg19_100&#45;&gt;hg19_110</title>
<path fill="none" stroke="black" d="M236.457,-649.667C196.281,-627.666 132,-583.079 132,-523 132,-523 132,-523 132,-449 132,-401.959 97.6294,-356.658 73.1238,-330.337"/>
<polygon fill="black" stroke="black" points="75.6451,-327.91 66.1977,-323.114 70.5926,-332.754 75.6451,-327.91"/>
</g>
<!-- hg19_400 -->
<g id="node6" class="node"><title>hg19_400</title>
<ellipse fill="none" stroke="black" cx="405" cy="-594" rx="49.4959" ry="18"/>
<text text-anchor="middle" x="405" y="-589.8" font-family="Times,serif" font-size="14.00">hg19_400</text>
</g>
<!-- hg19_100&#45;&gt;hg19_400 -->
<g id="edge5" class="edge"><title>hg19_100&#45;&gt;hg19_400</title>
<path fill="none" stroke="black" d="M298.405,-649.465C319.098,-638.892 346.592,-624.844 368.474,-613.663"/>
<polygon fill="black" stroke="black" points="370.159,-616.732 377.472,-609.066 366.974,-610.499 370.159,-616.732"/>
</g>
<!-- hg19_120 -->
<g id="node4" class="node"><title>hg19_120</title>
<ellipse fill="none" stroke="black" cx="127" cy="-234" rx="49.4959" ry="18"/>
<text text-anchor="middle" x="127" y="-229.8" font-family="Times,serif" font-size="14.00">hg19_120</text>
</g>
<!-- hg19_110&#45;&gt;hg19_120 -->
<g id="edge3" class="edge"><title>hg19_110&#45;&gt;hg19_120</title>
<path fill="none" stroke="black" d="M66.6994,-289.116C77.0711,-279.808 90.3421,-267.898 101.792,-257.622"/>
<polygon fill="black" stroke="black" points="104.266,-260.105 109.371,-250.821 99.5905,-254.895 104.266,-260.105"/>
</g>
<!-- hg19_1000 -->
<g id="node19" class="node"><title>hg19_1000</title>
<ellipse fill="none" stroke="black" cx="809" cy="-18" rx="54.2392" ry="18"/>
<text text-anchor="middle" x="809" y="-13.8" font-family="Times,serif" font-size="14.00">hg19_1000</text>
</g>
<!-- hg19_110&#45;&gt;hg19_1000 -->
<g id="edge50" class="edge"><title>hg19_110&#45;&gt;hg19_1000</title>
<path fill="none" stroke="black" d="M48.5363,-287.85C48.8764,-268.528 52.1249,-237.075 68,-216 108.913,-161.685 140.095,-169.826 203,-144 391.877,-66.4563 634.336,-35.1533 746.699,-24.1727"/>
<polygon fill="black" stroke="black" points="747.215,-27.6394 756.836,-23.203 746.548,-20.6712 747.215,-27.6394"/>
</g>
<!-- mean_depth -->
<g id="node13" class="node"><title>mean_depth</title>
<ellipse fill="none" stroke="black" cx="333" cy="-162" rx="100.006" ry="18"/>
<text text-anchor="middle" x="333" y="-157.8" font-family="Times,serif" font-size="14.00">statistics (mean_depth)</text>
</g>
<!-- hg19_120&#45;&gt;mean_depth -->
<g id="edge41" class="edge"><title>hg19_120&#45;&gt;mean_depth</title>
<path fill="none" stroke="black" d="M161.945,-221.125C193.873,-210.276 241.594,-194.06 278.525,-181.511"/>
<polygon fill="black" stroke="black" points="279.806,-184.772 288.148,-178.241 277.554,-178.144 279.806,-184.772"/>
</g>
<!-- hg19_440 -->
<g id="node16" class="node"><title>hg19_440</title>
<ellipse fill="none" stroke="black" cx="600" cy="-522" rx="49.4959" ry="18"/>
<text text-anchor="middle" x="600" y="-517.8" font-family="Times,serif" font-size="14.00">hg19_440</text>
</g>
<!-- hg19_400&#45;&gt;hg19_440 -->
<g id="edge7" class="edge"><title>hg19_400&#45;&gt;hg19_440</title>
<path fill="none" stroke="black" d="M438.966,-580.807C471.582,-569.099 520.998,-551.36 556.483,-538.622"/>
<polygon fill="black" stroke="black" points="557.867,-541.843 566.096,-535.171 555.502,-535.255 557.867,-541.843"/>
</g>
<!-- hg19_500 -->
<g id="node7" class="node"><title>hg19_500</title>
<ellipse fill="none" stroke="black" cx="1196" cy="-90" rx="128.228" ry="18"/>
<text text-anchor="middle" x="1196" y="-85.8" font-family="Times,serif" font-size="14.00">hg19_500 (genebody average)</text>
</g>
<!-- hg19_500&#45;&gt;hg19_1000 -->
<g id="edge11" class="edge"><title>hg19_500&#45;&gt;hg19_1000</title>
<path fill="none" stroke="black" d="M1120.46,-75.3371C1045.66,-61.8076 932.837,-41.3994 865.486,-29.2172"/>
<polygon fill="black" stroke="black" points="865.948,-25.744 855.485,-27.4082 864.702,-32.6323 865.948,-25.744"/>
</g>
<!-- hg19_800 -->
<g id="node8" class="node"><title>hg19_800</title>
<ellipse fill="none" stroke="black" cx="1053" cy="-306" rx="157.485" ry="18"/>
<text text-anchor="middle" x="1053" y="-301.8" font-family="Times,serif" font-size="14.00">hg19_800 (GATK UnifiedGenotyper)</text>
</g>
<!-- hg19_820 -->
<g id="node9" class="node"><title>hg19_820</title>
<ellipse fill="none" stroke="black" cx="1035" cy="-234" rx="139.138" ry="18"/>
<text text-anchor="middle" x="1035" y="-229.8" font-family="Times,serif" font-size="14.00">hg19_800 (GATK Recalibration)</text>
</g>
<!-- hg19_800&#45;&gt;hg19_820 -->
<g id="edge14" class="edge"><title>hg19_800&#45;&gt;hg19_820</title>
<path fill="none" stroke="black" d="M1048.55,-287.697C1046.55,-279.898 1044.13,-270.509 1041.9,-261.829"/>
<polygon fill="black" stroke="black" points="1045.28,-260.918 1039.4,-252.104 1038.5,-262.661 1045.28,-260.918"/>
</g>
<!-- counts -->
<g id="node10" class="node"><title>counts</title>
<ellipse fill="none" stroke="black" cx="655" cy="-162" rx="87.4905" ry="18"/>
<text text-anchor="middle" x="655" y="-157.8" font-family="Times,serif" font-size="14.00">statistics (variables)</text>
</g>
<!-- hg19_820&#45;&gt;counts -->
<g id="edge17" class="edge"><title>hg19_820&#45;&gt;counts</title>
<path fill="none" stroke="black" d="M958.558,-218.919C891.251,-206.52 793.912,-188.589 727.737,-176.399"/>
<polygon fill="black" stroke="black" points="728.269,-172.938 717.8,-174.569 727.001,-179.822 728.269,-172.938"/>
</g>
<!-- hg19_820&#45;&gt;hg19_1000 -->
<g id="edge15" class="edge"><title>hg19_820&#45;&gt;hg19_1000</title>
<path fill="none" stroke="black" d="M1018.26,-216.083C1000.32,-198.04 970.925,-168.716 945,-144 907.185,-107.948 862.421,-67.1574 834.867,-42.2608"/>
<polygon fill="black" stroke="black" points="837.003,-39.4735 827.234,-35.3724 832.313,-44.6704 837.003,-39.4735"/>
</g>
<!-- hg19_900 -->
<g id="node14" class="node"><title>hg19_900</title>
<ellipse fill="none" stroke="black" cx="539" cy="-90" rx="84.9816" ry="18"/>
<text text-anchor="middle" x="539" y="-85.8" font-family="Times,serif" font-size="14.00">hg19_900 (reports)</text>
</g>
<!-- counts&#45;&gt;hg19_900 -->
<g id="edge36" class="edge"><title>counts&#45;&gt;hg19_900</title>
<path fill="none" stroke="black" d="M628.096,-144.765C612.137,-135.135 591.72,-122.814 574.458,-112.397"/>
<polygon fill="black" stroke="black" points="576.129,-109.317 565.758,-107.147 572.512,-115.311 576.129,-109.317"/>
</g>
<!-- before_tophat -->
<g id="node11" class="node"><title>before_tophat</title>
<ellipse fill="none" stroke="black" cx="695" cy="-378" rx="106.237" ry="18"/>
<text text-anchor="middle" x="695" y="-373.8" font-family="Times,serif" font-size="14.00">before_tophat (Gene.txt)</text>
</g>
<!-- hg19_720 -->
<g id="node23" class="node"><title>hg19_720</title>
<ellipse fill="none" stroke="black" cx="769" cy="-306" rx="49.4959" ry="18"/>
<text text-anchor="middle" x="769" y="-301.8" font-family="Times,serif" font-size="14.00">hg19_720</text>
</g>
<!-- before_tophat&#45;&gt;hg19_720 -->
<g id="edge19" class="edge"><title>before_tophat&#45;&gt;hg19_720</title>
<path fill="none" stroke="black" d="M712.913,-360.055C722.389,-351.091 734.165,-339.952 744.477,-330.198"/>
<polygon fill="black" stroke="black" points="747.155,-332.482 752.014,-323.068 742.344,-327.397 747.155,-332.482"/>
</g>
<!-- hg19_600 -->
<g id="node12" class="node"><title>hg19_600</title>
<ellipse fill="none" stroke="black" cx="442" cy="-378" rx="90.4392" ry="18"/>
<text text-anchor="middle" x="442" y="-373.8" font-family="Times,serif" font-size="14.00">hg19_600 (sort sam)</text>
</g>
<!-- hg19_630 -->
<g id="node27" class="node"><title>hg19_630</title>
<ellipse fill="none" stroke="black" cx="317" cy="-306" rx="49.4959" ry="18"/>
<text text-anchor="middle" x="317" y="-301.8" font-family="Times,serif" font-size="14.00">hg19_630</text>
</g>
<!-- hg19_600&#45;&gt;hg19_630 -->
<g id="edge26" class="edge"><title>hg19_600&#45;&gt;hg19_630</title>
<path fill="none" stroke="black" d="M413.008,-360.765C394.703,-350.514 370.954,-337.214 351.657,-326.408"/>
<polygon fill="black" stroke="black" points="353.297,-323.315 342.862,-321.483 349.877,-329.423 353.297,-323.315"/>
</g>
<!-- hg19_610 -->
<g id="node29" class="node"><title>hg19_610</title>
<ellipse fill="none" stroke="black" cx="490" cy="-306" rx="105.263" ry="18"/>
<text text-anchor="middle" x="490" y="-301.8" font-family="Times,serif" font-size="14.00">hg19_610 (htseq_count)</text>
</g>
<!-- hg19_600&#45;&gt;hg19_610 -->
<g id="edge29" class="edge"><title>hg19_600&#45;&gt;hg19_610</title>
<path fill="none" stroke="black" d="M453.619,-360.055C459.254,-351.837 466.143,-341.791 472.405,-332.66"/>
<polygon fill="black" stroke="black" points="475.385,-334.502 478.154,-324.275 469.612,-330.543 475.385,-334.502"/>
</g>
<!-- mean_depth&#45;&gt;hg19_900 -->
<g id="edge39" class="edge"><title>mean_depth&#45;&gt;hg19_900</title>
<path fill="none" stroke="black" d="M377.699,-145.811C409.686,-134.942 452.859,-120.271 486.49,-108.843"/>
<polygon fill="black" stroke="black" points="487.808,-112.092 496.151,-105.56 485.556,-105.464 487.808,-112.092"/>
</g>
<!-- hg19_900&#45;&gt;hg19_1000 -->
<g id="edge48" class="edge"><title>hg19_900&#45;&gt;hg19_1000</title>
<path fill="none" stroke="black" d="M590.739,-75.5861C638.772,-63.1332 709.876,-44.6989 757.751,-32.2868"/>
<polygon fill="black" stroke="black" points="758.796,-35.6316 767.598,-29.7339 757.039,-28.8556 758.796,-35.6316"/>
</g>
<!-- hg19_440&#45;&gt;hg19_600 -->
<g id="edge25" class="edge"><title>hg19_440&#45;&gt;hg19_600</title>
<path fill="none" stroke="black" d="M582.183,-504.987C554.506,-480.113 501.014,-432.038 468.706,-403.002"/>
<polygon fill="black" stroke="black" points="470.755,-400.137 460.978,-396.056 466.076,-405.343 470.755,-400.137"/>
</g>
<!-- hg19_440&#45;&gt;hg19_900 -->
<g id="edge47" class="edge"><title>hg19_440&#45;&gt;hg19_900</title>
<path fill="none" stroke="black" d="M591.694,-503.788C587.259,-493.634 582.259,-480.384 580,-468 571.387,-420.779 566.09,-405.94 580,-360 585.572,-341.595 598.428,-342.405 604,-324 608.637,-308.687 608.176,-303.446 604,-288 599.166,-270.119 590.741,-268.828 583,-252 568.844,-221.226 567.109,-212.626 558,-180 552.3,-159.585 547.356,-136.125 543.942,-118.418"/>
<polygon fill="black" stroke="black" points="547.31,-117.394 542.02,-108.215 540.431,-118.69 547.31,-117.394"/>
</g>
<!-- hg19_460 -->
<g id="node17" class="node"><title>hg19_460</title>
<ellipse fill="none" stroke="black" cx="999" cy="-450" rx="49.4959" ry="18"/>
<text text-anchor="middle" x="999" y="-445.8" font-family="Times,serif" font-size="14.00">hg19_460</text>
</g>
<!-- hg19_440&#45;&gt;hg19_460 -->
<g id="edge8" class="edge"><title>hg19_440&#45;&gt;hg19_460</title>
<path fill="none" stroke="black" d="M643.46,-513.376C716.913,-500.489 865.397,-474.439 945.264,-460.427"/>
<polygon fill="black" stroke="black" points="946.349,-463.791 955.594,-458.615 945.14,-456.896 946.349,-463.791"/>
</g>
<!-- hg19_440&#45;&gt;hg19_720 -->
<g id="edge45" class="edge"><title>hg19_440&#45;&gt;hg19_720</title>
<path fill="none" stroke="black" d="M639.042,-510.928C689.269,-495.607 774.289,-461.098 810,-396 821.778,-374.529 807.346,-349.063 792.456,-330.884"/>
<polygon fill="black" stroke="black" points="794.878,-328.335 785.675,-323.085 789.596,-332.928 794.878,-328.335"/>
</g>
<!-- hg19_480 -->
<g id="node37" class="node"><title>hg19_480</title>
<ellipse fill="none" stroke="black" cx="639" cy="-450" rx="49.4959" ry="18"/>
<text text-anchor="middle" x="639" y="-445.8" font-family="Times,serif" font-size="14.00">hg19_480</text>
</g>
<!-- hg19_440&#45;&gt;hg19_480 -->
<g id="edge43" class="edge"><title>hg19_440&#45;&gt;hg19_480</title>
<path fill="none" stroke="black" d="M609.441,-504.055C614.04,-495.801 619.666,-485.701 624.772,-476.538"/>
<polygon fill="black" stroke="black" points="627.837,-478.228 629.646,-467.789 621.722,-474.821 627.837,-478.228"/>
</g>
<!-- hg19_510 -->
<g id="node42" class="node"><title>hg19_510</title>
<ellipse fill="none" stroke="black" cx="887" cy="-162" rx="49.4959" ry="18"/>
<text text-anchor="middle" x="887" y="-157.8" font-family="Times,serif" font-size="14.00">hg19_510</text>
</g>
<!-- hg19_440&#45;&gt;hg19_510 -->
<g id="edge52" class="edge"><title>hg19_440&#45;&gt;hg19_510</title>
<path fill="none" stroke="black" d="M647.734,-517.01C724.533,-507.694 867,-477.179 867,-379 867,-379 867,-379 867,-305 867,-264.822 874.948,-218.869 880.823,-190.389"/>
<polygon fill="black" stroke="black" points="884.296,-190.887 882.953,-180.378 877.449,-189.431 884.296,-190.887"/>
</g>
<!-- mapped_reads -->
<g id="node44" class="node"><title>mapped_reads</title>
<ellipse fill="none" stroke="black" cx="183" cy="-306" rx="66.2141" ry="18"/>
<text text-anchor="middle" x="183" y="-301.8" font-family="Times,serif" font-size="14.00">mapped_reads</text>
</g>
<!-- hg19_440&#45;&gt;mapped_reads -->
<g id="edge55" class="edge"><title>hg19_440&#45;&gt;mapped_reads</title>
<path fill="none" stroke="black" d="M570.702,-507.495C522.553,-485.148 423.862,-438.695 342,-396 299.112,-373.632 250.733,-346.233 218.723,-327.793"/>
<polygon fill="black" stroke="black" points="220.153,-324.577 209.743,-322.608 216.653,-330.639 220.153,-324.577"/>
</g>
<!-- hg19_470 -->
<g id="node18" class="node"><title>hg19_470</title>
<ellipse fill="none" stroke="black" cx="1053" cy="-378" rx="49.4959" ry="18"/>
<text text-anchor="middle" x="1053" y="-373.8" font-family="Times,serif" font-size="14.00">hg19_470</text>
</g>
<!-- hg19_460&#45;&gt;hg19_470 -->
<g id="edge9" class="edge"><title>hg19_460&#45;&gt;hg19_470</title>
<path fill="none" stroke="black" d="M1011.8,-432.411C1018.46,-423.781 1026.72,-413.062 1034.1,-403.497"/>
<polygon fill="black" stroke="black" points="1036.96,-405.526 1040.29,-395.47 1031.42,-401.25 1036.96,-405.526"/>
</g>
<!-- hg19_470&#45;&gt;hg19_500 -->
<g id="edge10" class="edge"><title>hg19_470&#45;&gt;hg19_500</title>
<path fill="none" stroke="black" d="M1102.21,-376.003C1140.89,-372.302 1192.5,-360.278 1219,-324 1264.44,-261.793 1230,-163.993 1209.04,-117.393"/>
<polygon fill="black" stroke="black" points="1212.19,-115.859 1204.81,-108.257 1205.84,-118.802 1212.19,-115.859"/>
</g>
<!-- hg19_470&#45;&gt;hg19_800 -->
<g id="edge13" class="edge"><title>hg19_470&#45;&gt;hg19_800</title>
<path fill="none" stroke="black" d="M1053,-359.697C1053,-351.983 1053,-342.712 1053,-334.112"/>
<polygon fill="black" stroke="black" points="1056.5,-334.104 1053,-324.104 1049.5,-334.104 1056.5,-334.104"/>
</g>
<!-- hg19_730 -->
<g id="node24" class="node"><title>hg19_730</title>
<ellipse fill="none" stroke="black" cx="769" cy="-234" rx="49.4959" ry="18"/>
<text text-anchor="middle" x="769" y="-229.8" font-family="Times,serif" font-size="14.00">hg19_730</text>
</g>
<!-- hg19_720&#45;&gt;hg19_730 -->
<g id="edge20" class="edge"><title>hg19_720&#45;&gt;hg19_730</title>
<path fill="none" stroke="black" d="M769,-287.697C769,-279.983 769,-270.712 769,-262.112"/>
<polygon fill="black" stroke="black" points="772.5,-262.104 769,-252.104 765.5,-262.104 772.5,-262.104"/>
</g>
<!-- hg19_730&#45;&gt;counts -->
<g id="edge23" class="edge"><title>hg19_730&#45;&gt;counts</title>
<path fill="none" stroke="black" d="M744.824,-218.155C729.017,-208.449 708.102,-195.606 690.431,-184.756"/>
<polygon fill="black" stroke="black" points="691.883,-181.541 681.53,-179.29 688.22,-187.506 691.883,-181.541"/>
</g>
<!-- hg19_730&#45;&gt;hg19_1000 -->
<g id="edge21" class="edge"><title>hg19_730&#45;&gt;hg19_1000</title>
<path fill="none" stroke="black" d="M774.826,-215.982C778.183,-205.669 782.266,-192.192 785,-180 795.444,-133.423 802.554,-78.2213 806.183,-46.0517"/>
<polygon fill="black" stroke="black" points="809.666,-46.3932 807.28,-36.0707 802.708,-45.6284 809.666,-46.3932"/>
</g>
<!-- hg19_631 -->
<g id="node28" class="node"><title>hg19_631</title>
<ellipse fill="none" stroke="black" cx="325" cy="-234" rx="49.4959" ry="18"/>
<text text-anchor="middle" x="325" y="-229.8" font-family="Times,serif" font-size="14.00">hg19_631</text>
</g>
<!-- hg19_630&#45;&gt;hg19_631 -->
<g id="edge27" class="edge"><title>hg19_630&#45;&gt;hg19_631</title>
<path fill="none" stroke="black" d="M318.978,-287.697C319.859,-279.983 320.919,-270.712 321.901,-262.112"/>
<polygon fill="black" stroke="black" points="325.387,-262.437 323.045,-252.104 318.432,-261.642 325.387,-262.437"/>
</g>
<!-- hg19_631&#45;&gt;counts -->
<g id="edge35" class="edge"><title>hg19_631&#45;&gt;counts</title>
<path fill="none" stroke="black" d="M366.461,-224.205C421.702,-212.487 520.173,-191.6 586.525,-177.525"/>
<polygon fill="black" stroke="black" points="587.423,-180.913 596.479,-175.414 585.97,-174.065 587.423,-180.913"/>
</g>
<!-- hg19_631&#45;&gt;mean_depth -->
<g id="edge38" class="edge"><title>hg19_631&#45;&gt;mean_depth</title>
<path fill="none" stroke="black" d="M326.978,-215.697C327.859,-207.983 328.919,-198.712 329.901,-190.112"/>
<polygon fill="black" stroke="black" points="333.387,-190.437 331.045,-180.104 326.432,-189.642 333.387,-190.437"/>
</g>
<!-- hg19_620 -->
<g id="node31" class="node"><title>hg19_620</title>
<ellipse fill="none" stroke="black" cx="642" cy="-234" rx="49.4959" ry="18"/>
<text text-anchor="middle" x="642" y="-229.8" font-family="Times,serif" font-size="14.00">hg19_620</text>
</g>
<!-- hg19_610&#45;&gt;hg19_620 -->
<g id="edge30" class="edge"><title>hg19_610&#45;&gt;hg19_620</title>
<path fill="none" stroke="black" d="M524.872,-288.941C548.24,-278.179 579.031,-263.999 603.178,-252.879"/>
<polygon fill="black" stroke="black" points="604.791,-255.989 612.41,-248.627 601.863,-249.631 604.791,-255.989"/>
</g>
<!-- hg19_620&#45;&gt;counts -->
<g id="edge33" class="edge"><title>hg19_620&#45;&gt;counts</title>
<path fill="none" stroke="black" d="M645.213,-215.697C646.646,-207.983 648.368,-198.712 649.965,-190.112"/>
<polygon fill="black" stroke="black" points="653.439,-190.575 651.823,-180.104 646.556,-189.297 653.439,-190.575"/>
</g>
<!-- hg19_620&#45;&gt;hg19_1000 -->
<g id="edge31" class="edge"><title>hg19_620&#45;&gt;hg19_1000</title>
<path fill="none" stroke="black" d="M680.092,-222.561C703.39,-214.411 732.225,-200.895 751,-180 769.175,-159.772 791.015,-86.1446 801.985,-45.8331"/>
<polygon fill="black" stroke="black" points="805.38,-46.686 804.593,-36.1204 798.619,-44.8707 805.38,-46.686"/>
</g>
<!-- hg19_510&#45;&gt;hg19_1000 -->
<g id="edge53" class="edge"><title>hg19_510&#45;&gt;hg19_1000</title>
<path fill="none" stroke="black" d="M877.746,-144.153C864.259,-119.6 839.086,-73.7727 823.231,-44.9083"/>
<polygon fill="black" stroke="black" points="826.124,-42.9047 818.242,-35.825 819.989,-46.2748 826.124,-42.9047"/>
</g>
<!-- mapped_reads&#45;&gt;hg19_900 -->
<g id="edge60" class="edge"><title>mapped_reads&#45;&gt;hg19_900</title>
<path fill="none" stroke="black" d="M185.017,-287.782C189.757,-250.377 202.832,-163.486 224,-144 255.791,-114.734 365.601,-101.459 446.666,-95.5513"/>
<polygon fill="black" stroke="black" points="447.171,-99.0245 456.901,-94.833 446.681,-92.0417 447.171,-99.0245"/>
</g>
<!-- mapped_reads&#45;&gt;hg19_631 -->
<g id="edge56" class="edge"><title>mapped_reads&#45;&gt;hg19_631</title>
<path fill="none" stroke="black" d="M213.463,-289.983C235.093,-279.32 264.273,-264.936 287.361,-253.554"/>
<polygon fill="black" stroke="black" points="289.1,-256.6 296.522,-249.039 286.005,-250.321 289.1,-256.6"/>
</g>
<!-- mapped_reads&#45;&gt;hg19_620 -->
<g id="edge58" class="edge"><title>mapped_reads&#45;&gt;hg19_620</title>
<path fill="none" stroke="black" d="M230.887,-293.503C239.868,-291.529 249.199,-289.602 258,-288 373.565,-266.967 510.048,-249.978 585.205,-241.295"/>
<polygon fill="black" stroke="black" points="585.859,-244.743 595.395,-240.126 585.061,-237.789 585.859,-244.743"/>
</g>
</g>
</svg>
