<?xml version="1.0" encoding="UTF-8" standalone="no"?>
<!DOCTYPE svg PUBLIC "-//W3C//DTD SVG 1.1//EN"
 "http://www.w3.org/Graphics/SVG/1.1/DTD/svg11.dtd">
<!-- Generated by graphviz version 2.38.0 (20140413.2041)
 -->
<!-- Title: task_status Pages: 1 -->
<svg width="372pt" height="1019pt"
 viewBox="0.00 0.00 372.00 1019.00" xmlns="http://www.w3.org/2000/svg" xmlns:xlink="http://www.w3.org/1999/xlink">
<g id="graph0" class="graph" transform="scale(1 1) rotate(0) translate(4 1015)">
<title>task_status</title>
<polygon fill="white" stroke="none" points="-4,4 -4,-1015 368,-1015 368,4 -4,4"/>
<text text-anchor="middle" x="182" y="-7.8" font-family="Times,serif" font-size="14.00">Task workflow</text>
<!-- def_file -->
<g id="node1" class="node"><title>def_file</title>
<polygon fill="lightgrey" stroke="black" points="251.5,-1011 154.5,-1011 154.5,-958 251.5,-958 251.5,-1011"/>
<text text-anchor="middle" x="203" y="-995.8" font-family="Times,serif" font-size="14.00">create task</text>
<text text-anchor="middle" x="203" y="-980.8" font-family="Times,serif" font-size="14.00">.def file</text>
<text text-anchor="middle" x="203" y="-965.8" font-family="Times,serif" font-size="14.00">status=queued</text>
</g>
<!-- check_status -->
<g id="node8" class="node"><title>check_status</title>
<polygon fill="none" stroke="black" points="284,-907 155.147,-907 122,-871 250.853,-871 284,-907"/>
<text text-anchor="middle" x="203" y="-885.3" font-family="Times,serif" font-size="14.00">check status</text>
</g>
<!-- def_file&#45;&gt;check_status -->
<g id="edge16" class="edge"><title>def_file&#45;&gt;check_status</title>
<path fill="none" stroke="black" d="M203,-957.951C203,-945.363 203,-930.173 203,-917.35"/>
<polygon fill="black" stroke="black" points="206.5,-917.245 203,-907.245 199.5,-917.245 206.5,-917.245"/>
<text text-anchor="middle" x="264.5" y="-928.8" font-family="Times,serif" font-size="14.00">max_running_jobs ok</text>
</g>
<!-- pending -->
<g id="node2" class="node"><title>pending</title>
<polygon fill="lightgrey" stroke="black" points="221.5,-601 120.5,-601 120.5,-563 221.5,-563 221.5,-601"/>
<text text-anchor="middle" x="171" y="-585.8" font-family="Times,serif" font-size="14.00">Waiting</text>
<text text-anchor="middle" x="171" y="-570.8" font-family="Times,serif" font-size="14.00">status=pending</text>
</g>
<!-- local -->
<g id="node3" class="node"><title>local</title>
<polygon fill="none" stroke="black" points="171,-526 100.449,-508 171,-490 241.551,-508 171,-526"/>
<text text-anchor="middle" x="171" y="-504.3" font-family="Times,serif" font-size="14.00">local host?</text>
</g>
<!-- pending&#45;&gt;local -->
<g id="edge3" class="edge"><title>pending&#45;&gt;local</title>
<path fill="none" stroke="black" d="M171,-562.831C171,-554.894 171,-545.409 171,-536.628"/>
<polygon fill="black" stroke="black" points="174.5,-536.418 171,-526.418 167.5,-536.418 174.5,-536.418"/>
</g>
<!-- remote -->
<g id="node4" class="node"><title>remote</title>
<polygon fill="lightgrey" stroke="black" points="166.5,-439 39.5,-439 39.5,-401 166.5,-401 166.5,-439"/>
<text text-anchor="middle" x="103" y="-423.8" font-family="Times,serif" font-size="14.00">Translated .task file</text>
<text text-anchor="middle" x="103" y="-408.8" font-family="Times,serif" font-size="14.00">status=submitted</text>
</g>
<!-- local&#45;&gt;remote -->
<g id="edge5" class="edge"><title>local&#45;&gt;remote</title>
<path fill="none" stroke="black" d="M159.771,-492.799C149.968,-480.401 135.491,-462.091 123.61,-447.065"/>
<polygon fill="black" stroke="black" points="126.27,-444.787 117.322,-439.114 120.779,-449.129 126.27,-444.787"/>
<text text-anchor="middle" x="151.5" y="-460.8" font-family="Times,serif" font-size="14.00">no</text>
</g>
<!-- job_queue -->
<g id="node5" class="node"><title>job_queue</title>
<polygon fill="none" stroke="black" points="172,-350 106.979,-332 172,-314 237.021,-332 172,-350"/>
<text text-anchor="middle" x="172" y="-328.3" font-family="Times,serif" font-size="14.00">job queue</text>
</g>
<!-- local&#45;&gt;job_queue -->
<g id="edge4" class="edge"><title>local&#45;&gt;job_queue</title>
<path fill="none" stroke="black" d="M172.261,-490.245C173.229,-476.489 174.486,-456.495 175,-439 175.791,-412.08 174.698,-381.314 173.617,-359.887"/>
<polygon fill="black" stroke="black" points="177.111,-359.687 173.078,-349.89 170.121,-360.064 177.111,-359.687"/>
<text text-anchor="middle" x="185.5" y="-416.3" font-family="Times,serif" font-size="14.00">yes</text>
</g>
<!-- remote&#45;&gt;job_queue -->
<g id="edge6" class="edge"><title>remote&#45;&gt;job_queue</title>
<path fill="none" stroke="black" d="M117.633,-400.762C128.414,-387.325 143.12,-368.995 154.519,-354.788"/>
<polygon fill="black" stroke="black" points="157.266,-356.957 160.794,-346.967 151.806,-352.576 157.266,-356.957"/>
</g>
<!-- job_queue_state -->
<g id="node6" class="node"><title>job_queue_state</title>
<polygon fill="lightgrey" stroke="black" points="181,-263 69,-263 69,-225 181,-225 181,-263"/>
<text text-anchor="middle" x="125" y="-247.8" font-family="Times,serif" font-size="14.00">Job Queue</text>
<text text-anchor="middle" x="125" y="-232.8" font-family="Times,serif" font-size="14.00">status=submitted</text>
</g>
<!-- job_queue&#45;&gt;job_queue_state -->
<g id="edge8" class="edge"><title>job_queue&#45;&gt;job_queue_state</title>
<path fill="none" stroke="black" d="M163.813,-316.02C157.211,-303.94 147.754,-286.634 139.827,-272.131"/>
<polygon fill="black" stroke="black" points="142.752,-270.184 134.885,-263.087 136.609,-273.541 142.752,-270.184"/>
<text text-anchor="middle" x="162.5" y="-284.8" font-family="Times,serif" font-size="14.00">yes</text>
</g>
<!-- running -->
<g id="node7" class="node"><title>running</title>
<polygon fill="lightgrey" stroke="black" points="240.851,-188 75.6473,-188 33.1491,-112 198.353,-112 240.851,-188"/>
<text text-anchor="middle" x="137" y="-153.8" font-family="Times,serif" font-size="14.00">Execute task</text>
<text text-anchor="middle" x="137" y="-138.8" font-family="Times,serif" font-size="14.00">status=running</text>
</g>
<!-- job_queue&#45;&gt;running -->
<g id="edge7" class="edge"><title>job_queue&#45;&gt;running</title>
<path fill="none" stroke="black" d="M179.118,-315.579C187.771,-294.651 200.046,-256.279 190,-225 186.814,-215.081 181.754,-205.362 175.996,-196.399"/>
<polygon fill="black" stroke="black" points="178.829,-194.342 170.301,-188.056 173.048,-198.288 178.829,-194.342"/>
<text text-anchor="middle" x="201.5" y="-240.3" font-family="Times,serif" font-size="14.00">no</text>
</g>
<!-- job_queue_state&#45;&gt;running -->
<g id="edge9" class="edge"><title>job_queue_state&#45;&gt;running</title>
<path fill="none" stroke="black" d="M127.371,-224.824C128.374,-217.132 129.594,-207.779 130.824,-198.349"/>
<polygon fill="black" stroke="black" points="134.33,-198.532 132.153,-188.163 127.389,-197.626 134.33,-198.532"/>
</g>
<!-- failed -->
<g id="node11" class="node"><title>failed</title>
<polygon fill="lightgrey" stroke="black" points="228,-61 0,-61 0,-23 228,-23 228,-61"/>
<text text-anchor="middle" x="114" y="-45.8" font-family="Times,serif" font-size="14.00">Failed</text>
<text text-anchor="middle" x="114" y="-30.8" font-family="Times,serif" font-size="14.00">status=failed/aborted/result&#45;mismatch</text>
</g>
<!-- running&#45;&gt;failed -->
<g id="edge15" class="edge"><title>running&#45;&gt;failed</title>
<path fill="none" stroke="black" d="M128.956,-111.926C126.041,-98.4934 122.8,-83.5558 120.082,-71.0301"/>
<polygon fill="black" stroke="black" points="123.482,-70.1922 117.941,-61.1618 116.641,-71.6766 123.482,-70.1922"/>
<text text-anchor="middle" x="142.5" y="-82.8" font-family="Times,serif" font-size="14.00">Failed</text>
</g>
<!-- completed -->
<g id="node12" class="node"><title>completed</title>
<polygon fill="lightgrey" stroke="black" points="361.5,-61 246.5,-61 246.5,-23 361.5,-23 361.5,-61"/>
<text text-anchor="middle" x="304" y="-45.8" font-family="Times,serif" font-size="14.00">completed</text>
<text text-anchor="middle" x="304" y="-30.8" font-family="Times,serif" font-size="14.00">status=completed</text>
</g>
<!-- running&#45;&gt;completed -->
<g id="edge14" class="edge"><title>running&#45;&gt;completed</title>
<path fill="none" stroke="black" d="M194.312,-111.96C210.95,-101.271 229.17,-89.6261 246,-79 252.407,-74.9545 259.232,-70.6842 265.866,-66.5537"/>
<polygon fill="black" stroke="black" points="268.09,-69.2925 274.737,-61.0421 264.396,-63.3467 268.09,-69.2925"/>
<text text-anchor="middle" x="256.5" y="-82.8" font-family="Times,serif" font-size="14.00">OK</text>
</g>
<!-- check_status&#45;&gt;pending -->
<g id="edge2" class="edge"><title>check_status&#45;&gt;pending</title>
<path fill="none" stroke="black" d="M195.558,-870.635C186.019,-847.342 169.996,-804.449 164,-766 155.542,-711.766 161.675,-647.455 166.566,-611.323"/>
<polygon fill="black" stroke="black" points="170.084,-611.45 168.027,-601.056 163.153,-610.464 170.084,-611.45"/>
<text text-anchor="middle" x="213" y="-754.8" font-family="Times,serif" font-size="14.00">non&#45;exist</text>
<text text-anchor="middle" x="213" y="-739.8" font-family="Times,serif" font-size="14.00">aborted</text>
<text text-anchor="middle" x="213" y="-724.8" font-family="Times,serif" font-size="14.00">failed</text>
<text text-anchor="middle" x="213" y="-709.8" font-family="Times,serif" font-size="14.00">output_mismatch</text>
</g>
<!-- forced -->
<g id="node9" class="node"><title>forced</title>
<polygon fill="none" stroke="black" points="286,-820 226.009,-802 286,-784 345.991,-802 286,-820"/>
<text text-anchor="middle" x="286" y="-798.3" font-family="Times,serif" font-size="14.00">&#45;s force?</text>
</g>
<!-- check_status&#45;&gt;forced -->
<g id="edge1" class="edge"><title>check_status&#45;&gt;forced</title>
<path fill="none" stroke="black" d="M219.796,-870.799C233.065,-857.21 251.632,-838.196 265.728,-823.76"/>
<polygon fill="black" stroke="black" points="268.555,-825.875 273.037,-816.275 263.546,-820.985 268.555,-825.875"/>
<text text-anchor="middle" x="279.5" y="-841.8" font-family="Times,serif" font-size="14.00">completed</text>
</g>
<!-- resumed -->
<g id="node10" class="node"><title>resumed</title>
<polygon fill="none" stroke="black" points="257,-688 192.818,-670 257,-652 321.182,-670 257,-688"/>
<text text-anchor="middle" x="257" y="-666.3" font-family="Times,serif" font-size="14.00">resumed?</text>
</g>
<!-- forced&#45;&gt;resumed -->
<g id="edge10" class="edge"><title>forced&#45;&gt;resumed</title>
<path fill="none" stroke="black" d="M282.444,-785.059C277.552,-763.13 268.687,-723.39 262.821,-697.093"/>
<polygon fill="black" stroke="black" points="266.178,-696.069 260.585,-687.071 259.346,-697.593 266.178,-696.069"/>
<text text-anchor="middle" x="287.5" y="-732.3" font-family="Times,serif" font-size="14.00">yes</text>
</g>
<!-- forced&#45;&gt;completed -->
<g id="edge11" class="edge"><title>forced&#45;&gt;completed</title>
<path fill="none" stroke="black" d="M297.85,-787.255C316.099,-764.627 349,-717.398 349,-671 349,-671 349,-671 349,-149 349,-120.265 334.815,-90.3825 322.373,-69.6993"/>
<polygon fill="black" stroke="black" points="325.293,-67.768 317.016,-61.1549 319.363,-71.4865 325.293,-67.768"/>
<text text-anchor="middle" x="356.5" y="-416.3" font-family="Times,serif" font-size="14.00">no</text>
</g>
<!-- resumed&#45;&gt;pending -->
<g id="edge13" class="edge"><title>resumed&#45;&gt;pending</title>
<path fill="none" stroke="black" d="M243.562,-655.562C230.977,-642.977 211.843,-623.843 196.383,-608.383"/>
<polygon fill="black" stroke="black" points="198.679,-605.73 189.133,-601.133 193.73,-610.679 198.679,-605.73"/>
<text text-anchor="middle" x="229.5" y="-622.8" font-family="Times,serif" font-size="14.00">no</text>
</g>
<!-- resumed&#45;&gt;completed -->
<g id="edge12" class="edge"><title>resumed&#45;&gt;completed</title>
<path fill="none" stroke="black" d="M263.942,-653.821C271.03,-636.91 281,-608.577 281,-583 281,-583 281,-583 281,-149 281,-121.975 288.228,-91.9367 294.581,-70.7575"/>
<polygon fill="black" stroke="black" points="297.949,-71.713 297.593,-61.1241 291.268,-69.6237 297.949,-71.713"/>
<text text-anchor="middle" x="290.5" y="-371.8" font-family="Times,serif" font-size="14.00">yes</text>
</g>
</g>
</svg>
