<?xml version="1.0" encoding="utf-8"?>
<!-- Generator: Adobe Illustrator 21.0.2, SVG Export Plug-In . SVG Version: 6.00 Build 0)  -->
<svg version="1.1" id="Layer_1" xmlns="http://www.w3.org/2000/svg" xmlns:xlink="http://www.w3.org/1999/xlink" x="0px" y="0px"
	 viewBox="0 0 240 240" style="enable-background:new 0 0 240 240;" xml:space="preserve">
<style type="text/css">
	.st0{fill:none;stroke:#000000;stroke-width:3;stroke-miterlimit:10;}
	.st1{fill:none;}
</style>
<g>
	<g id="XMLID_1_">
		<g>
		</g>
		<g>
			<path class="st0" d="M92.6,52.6c7-5.1,17.6-7.5,26.7-7.5c31.1,0,42.8,22.8,50.3,22.8c8.4,0,23.9-23,23.9-30.1
				c0-7.3-30.8-26.8-74.2-26.8c-32,0-51.9,10-63.5,22.6l25.6-0.2L92.6,52.6z"/>
			<path class="st0" d="M104.1,105.9l18.4-12.2C106,88.8,85.2,81.4,85.2,66.1c0-2.5,0.6-4.7,1.6-6.8L77,42.2l-27.6-0.3
				c-5.7,9.2-8,18.8-8,26.5c0,20.4,6.5,44,63.1,61l-1.3-21.8C103.2,106.9,103.5,106.2,104.1,105.9z"/>
			<path class="st0" d="M157.9,167.4c-3.5,12.7-21.5,19.4-41.9,19.4c-64.4,0-59.3-51.3-64.4-51.3c-3,0-18.3,12.7-18.3,34.1
				c0,40.2,43.1,59.4,85.6,59.4c43.3,0,68.6-17,80.2-37.1l-15.3-25.1L157.9,167.4z"/>
			<path class="st0" d="M203.6,182.6c2.3-6.4,3.4-12.9,3.4-19.1c0-23.8-12.6-49-73.8-66.7L113,109.7c-0.6,0.4-0.9,1-0.9,1.7
				l0.9,20.4c0.4,0.1,0.8,0.2,1.1,0.3c16.2,4.2,40.7,11.1,43.9,27l29.8-1.2L203.6,182.6z"/>
		</g>
	</g>
</g>
<path class="st1" d="M49-19"/>
<line class="st1" x1="-21" y1="144" x2="-21" y2="143"/>
<path class="st0" d="M246,135"/>
<path class="st0" d="M-25,135"/>
<circle class="st0" cx="173.5" cy="38.5" r="7.5"/>
</svg>
