<?xml version="1.0"?>
<svg width="64" height="84" xmlns="http://www.w3.org/2000/svg" xmlns:svg="http://www.w3.org/2000/svg" stroke="null" style="vector-effect: non-scaling-stroke;">
 <g stroke="null">
  <title stroke="null">Layer 1</title>
  <path fill="#aa56ff" d="m64.015324,74.820672c0,4.994405 -3.076,9.040373 -6.876,9.040373l-50.041,0c-3.796,0 -6.874,-4.045969 -6.874,-9.040373l0,-65.728567c0,-4.987838 3.078,-9.033806 6.874,-9.033806l50.042,0c3.8,0 6.876,4.045969 6.876,9.033806l0,65.728567l-0.001,0z" id="svg_1"/>
  <path style="vector-effect: non-scaling-stroke;" fill="#7f00ff" d="m0.315168,68.774564l0,8.339c0,3.802 3.078,6.882 6.874,6.882l50.04,0c3.8,0 6.876,-3.08 6.876,-6.882l0,-50.04c-10.894,39.569 -50.05,42.08 -63.792,41.697" id="svg_2"/>
  <g stroke="null" id="svg_12"/>
  <text style="vector-effect: non-scaling-stroke;" fill="#ffffff" stroke-width="0" stroke-dasharray="null" stroke-linejoin="round" stroke-linecap="square" x="31.251917" y="62.592784" id="svg_14" font-size="24" font-family="Sans-serif" text-anchor="middle" xml:space="preserve" font-weight="bold">SoS</text>
 </g>
</svg>