<?xml version="1.0"?>
<svg width="64" height="64" xmlns="http://www.w3.org/2000/svg" xmlns:svg="http://www.w3.org/2000/svg">
 <g>
  <title>Layer 1</title>
  <path id="svg_1" d="m63.881843,57.186393c0,3.81791 -3.076,6.910799 -6.876,6.910799l-50.041,0c-3.796,0 -6.874,-3.092889 -6.874,-6.910799l0,-50.245387c0,-3.812889 3.078,-6.905778 6.874,-6.905778l50.042,0c3.8,0 6.876,3.092889 6.876,6.905778l0,50.245387l-0.001,0z" fill="#aa56ff"/>
  <path id="svg_2" d="m0.048203,49.419398l0,8.339c0,3.802 3.078,6.882 6.874,6.882l50.04,0c3.8,0 6.876,-3.08 6.876,-6.882l0,-50.04c-10.894,39.569 -50.05,42.08 -63.792,41.697" fill="#7f00ff"/>
  <g id="svg_12"/>
  <text font-weight="bold" xml:space="preserve" text-anchor="middle" font-family="Sans-serif" font-size="24" id="svg_14" y="49.377879" x="31.385401" stroke-linecap="square" stroke-linejoin="round" stroke-dasharray="null" stroke-width="0" fill="#ffffff">SoS</text>
 </g>

</svg>