<?xml version="1.0" encoding="utf-8"?>
<!-- Generator: Adobe Illustrator 21.0.2, SVG Export Plug-In . SVG Version: 6.00 Build 0)  -->
<svg version="1.1" id="Layer_1" xmlns="http://www.w3.org/2000/svg" xmlns:xlink="http://www.w3.org/1999/xlink" x="0px" y="0px"
	 viewBox="0 0 240 240" style="enable-background:new 0 0 240 240;" xml:space="preserve">
<style type="text/css">
	.st0{fill:#BD351A;}
	.st1{fill:#3870A9;}
	.st2{fill:#CC9900;}
	.st3{fill:#6BBA54;}
	.st4{fill:none;}
	.st5{fill:none;stroke:#000000;stroke-miterlimit:10;}
</style>
<g>
	<g id="XMLID_1_">
		<g>
			<path class="st0" d="M183.3,141.9c0,3.9-0.8,8-2.6,12L169,138.3l-22.6,0.8c-2.5-10-21-14.3-33.2-17c-0.3-0.1-0.6-0.1-0.9-0.2
				l-0.7-12.9c0-0.4,0.2-0.8,0.7-1.1l15.3-8.2C173.8,111,183.3,126.9,183.3,141.9z"/>
			<path class="st1" d="M165.9,143.9l11.6,15.8c-8.8,12.7-27.9,23.4-60.6,23.4c-32.1,0-64.7-12.1-64.7-37.4
				c0-13.5,11.5-21.5,13.8-21.5c3.8,0,0,32.3,48.7,32.3c15.4,0,29-4.2,31.7-12.2L165.9,143.9z"/>
			<path class="st2" d="M173.2,62.7c0,4.5-11.8,19-18.1,19c-5.7,0-14.5-14.3-38-14.3c-6.9,0-14.9,1.5-20.2,4.7l-8.5-12.1L69,60
				c8.8-7.9,23.8-14.3,48-14.3C149.9,45.8,173.2,58.1,173.2,62.7z M163.7,63.1c0-2.6-2.5-4.7-5.7-4.7c-3.1,0-5.7,2.1-5.7,4.7
				c0,2.6,2.5,4.7,5.7,4.7C161.1,67.8,163.7,65.7,163.7,63.1z"/>
			<path class="st3" d="M119.4,97.9l-13.9,7.7c-0.4,0.2-0.7,0.6-0.6,1.1l1,13.8C63.1,109.6,58.2,94.8,58.2,82c0-4.8,1.7-10.9,6-16.7
				l20.8,0.2l7.3,10.8c-0.7,1.3-1.2,2.7-1.2,4.3C91.2,90.1,107,94.8,119.4,97.9z"/>
		</g>
		<g>
		</g>
	</g>
</g>
<path class="st4" d="M63.9,26.9"/>
<line class="st4" x1="11" y1="129.6" x2="11" y2="128.9"/>
<path class="st5" d="M212.8,123.9"/>
<path class="st5" d="M15.6,126"/>
</svg>
