<?xml version="1.0" encoding="UTF-8" standalone="no"?>
<!DOCTYPE svg PUBLIC "-//W3C//DTD SVG 1.1//EN"
 "http://www.w3.org/Graphics/SVG/1.1/DTD/svg11.dtd">
<!-- Generated by graphviz version 2.36.0 (20140111.2315)
 -->
<!-- Title: sos_kill Pages: 1 -->
<svg width="550pt" height="503pt"
 viewBox="0.00 0.00 550.00 503.00" xmlns="http://www.w3.org/2000/svg" xmlns:xlink="http://www.w3.org/1999/xlink">
<g id="graph0" class="graph" transform="scale(1 1) rotate(0) translate(4 499)">
<title>sos_kill</title>
<polygon fill="white" stroke="none" points="-4,4 -4,-499 546,-499 546,4 -4,4"/>
<g id="clust1" class="cluster"><title>cluster_0</title>
<polygon fill="none" stroke="black" stroke-dasharray="1,5" points="160,-324 160,-487 534,-487 534,-324 160,-324"/>
<text text-anchor="middle" x="347" y="-471.8" font-family="Times,serif" font-size="14.00">local</text>
</g>
<g id="clust2" class="cluster"><title>cluster_1</title>
<polygon fill="none" stroke="black" stroke-dasharray="1,5" points="8,-8 8,-290 420,-290 420,-8 8,-8"/>
<text text-anchor="middle" x="214" y="-274.8" font-family="Times,serif" font-size="14.00">remote</text>
</g>
<g id="clust3" class="cluster"><title>cluster_2</title>
<polygon fill="none" stroke="black" stroke-dasharray="1,5" points="270,-16 270,-179 412,-179 412,-16 270,-16"/>
<text text-anchor="middle" x="341" y="-163.8" font-family="Times,serif" font-size="14.00">PBS Job Queue</text>
</g>
<!-- cmd_kill -->
<g id="node1" class="node"><title>cmd_kill</title>
<polygon fill="none" stroke="black" points="511.25,-456 388.75,-456 388.75,-420 511.25,-420 511.25,-456"/>
<text text-anchor="middle" x="450" y="-434.3" font-family="Times,serif" font-size="14.00" fill="blue">sos kill task1 task2</text>
</g>
<!-- task1 -->
<g id="node4" class="node"><title>task1</title>
<ellipse fill="none" stroke="black" cx="418" cy="-350" rx="29.3479" ry="18"/>
<text text-anchor="middle" x="418" y="-346.3" font-family="Times,serif" font-size="14.00">task1</text>
</g>
<!-- cmd_kill&#45;&gt;task1 -->
<g id="edge1" class="edge"><title>cmd_kill&#45;&gt;task1</title>
<path fill="none" stroke="black" d="M426.943,-419.966C421.705,-414.832 416.85,-408.745 414,-402 410.876,-394.605 410.456,-386.074 411.221,-378.131"/>
<polygon fill="black" stroke="black" points="414.691,-378.594 412.781,-368.173 407.776,-377.511 414.691,-378.594"/>
<text text-anchor="middle" x="436.5" y="-390.3" font-family="Times,serif" font-size="14.00">kill task</text>
</g>
<!-- task2 -->
<g id="node5" class="node"><title>task2</title>
<ellipse fill="none" stroke="black" cx="496" cy="-350" rx="29.3479" ry="18"/>
<text text-anchor="middle" x="496" y="-346.3" font-family="Times,serif" font-size="14.00">task2</text>
</g>
<!-- cmd_kill&#45;&gt;task2 -->
<g id="edge2" class="edge"><title>cmd_kill&#45;&gt;task2</title>
<path fill="none" stroke="black" d="M459.309,-419.597C465.964,-407.155 475.023,-390.217 482.475,-376.286"/>
<polygon fill="black" stroke="black" points="485.697,-377.682 487.327,-367.214 479.525,-374.381 485.697,-377.682"/>
<text text-anchor="middle" x="499.5" y="-390.3" font-family="Times,serif" font-size="14.00">kill task</text>
</g>
<!-- cmd_kill_queue -->
<g id="node2" class="node"><title>cmd_kill_queue</title>
<polygon fill="none" stroke="black" points="356.25,-456 181.75,-456 181.75,-420 356.25,-420 356.25,-456"/>
<text text-anchor="middle" x="269" y="-434.3" font-family="Times,serif" font-size="14.00" fill="blue">sos kill task1 task2 &#45;q queue</text>
</g>
<!-- task_engine -->
<g id="node3" class="node"><title>task_engine</title>
<polygon fill="none" stroke="black" points="370.017,-368 209.321,-368 167.983,-332 328.679,-332 370.017,-368"/>
<text text-anchor="middle" x="269" y="-346.3" font-family="Times,serif" font-size="14.00" fill="blue">SoS task engine</text>
</g>
<!-- cmd_kill_queue&#45;&gt;task_engine -->
<g id="edge3" class="edge"><title>cmd_kill_queue&#45;&gt;task_engine</title>
<path fill="none" stroke="black" d="M269,-419.597C269,-407.746 269,-391.817 269,-378.292"/>
<polygon fill="black" stroke="black" points="272.5,-378.084 269,-368.084 265.5,-378.084 272.5,-378.084"/>
<text text-anchor="middle" x="301.5" y="-390.3" font-family="Times,serif" font-size="14.00">start engine</text>
</g>
<!-- remote_cmd_kill -->
<g id="node6" class="node"><title>remote_cmd_kill</title>
<polygon fill="none" stroke="black" points="211.25,-258 88.75,-258 88.75,-222 211.25,-222 211.25,-258"/>
<text text-anchor="middle" x="150" y="-236.3" font-family="Times,serif" font-size="14.00" fill="blue">sos kill task1 task2</text>
</g>
<!-- task_engine&#45;&gt;remote_cmd_kill -->
<g id="edge10" class="edge"><title>task_engine&#45;&gt;remote_cmd_kill</title>
<path fill="none" stroke="black" d="M250.144,-331.887C230.212,-313.797 198.623,-285.128 176.259,-264.832"/>
<polygon fill="black" stroke="black" points="178.525,-262.162 168.768,-258.033 173.821,-267.345 178.525,-262.162"/>
<text text-anchor="middle" x="237" y="-302.3" font-family="Times,serif" font-size="14.00">ssh</text>
</g>
<!-- remote_job_kill1 -->
<g id="node7" class="node"><title>remote_job_kill1</title>
<polygon fill="none" stroke="black" points="308,-259 230,-259 230,-221 308,-221 308,-259"/>
<text text-anchor="middle" x="269" y="-243.8" font-family="Times,serif" font-size="14.00" fill="blue">kill_cmd</text>
<text text-anchor="middle" x="269" y="-228.8" font-family="Times,serif" font-size="14.00" fill="blue">(qdel job1)</text>
</g>
<!-- task_engine&#45;&gt;remote_job_kill1 -->
<g id="edge11" class="edge"><title>task_engine&#45;&gt;remote_job_kill1</title>
<path fill="none" stroke="black" d="M269,-331.648C269,-314.844 269,-289.076 269,-269.303"/>
<polygon fill="black" stroke="black" points="272.5,-269.029 269,-259.029 265.5,-269.029 272.5,-269.029"/>
<text text-anchor="middle" x="278" y="-302.3" font-family="Times,serif" font-size="14.00">ssh</text>
</g>
<!-- remote_job_kill2 -->
<g id="node8" class="node"><title>remote_job_kill2</title>
<polygon fill="none" stroke="black" points="404,-259 326,-259 326,-221 404,-221 404,-259"/>
<text text-anchor="middle" x="365" y="-243.8" font-family="Times,serif" font-size="14.00" fill="blue">kill_cmd</text>
<text text-anchor="middle" x="365" y="-228.8" font-family="Times,serif" font-size="14.00" fill="blue">(qdel job2)</text>
</g>
<!-- task_engine&#45;&gt;remote_job_kill2 -->
<g id="edge12" class="edge"><title>task_engine&#45;&gt;remote_job_kill2</title>
<path fill="none" stroke="black" d="M284.424,-331.648C300.052,-314.066 324.404,-286.671 342.248,-266.596"/>
<polygon fill="black" stroke="black" points="344.946,-268.829 348.974,-259.029 339.714,-264.178 344.946,-268.829"/>
<text text-anchor="middle" x="324" y="-302.3" font-family="Times,serif" font-size="14.00">ssh</text>
</g>
<!-- remote_task1 -->
<g id="node9" class="node"><title>remote_task1</title>
<ellipse fill="none" stroke="black" cx="73" cy="-130" rx="57.2927" ry="18"/>
<text text-anchor="middle" x="73" y="-126.3" font-family="Times,serif" font-size="14.00">remote task1</text>
</g>
<!-- remote_cmd_kill&#45;&gt;remote_task1 -->
<g id="edge4" class="edge"><title>remote_cmd_kill&#45;&gt;remote_task1</title>
<path fill="none" stroke="black" d="M123.608,-221.969C116.586,-216.531 109.448,-210.068 104,-203 93.6375,-189.556 86.0138,-172.121 80.92,-157.775"/>
<polygon fill="black" stroke="black" points="84.1368,-156.357 77.655,-147.976 77.4958,-158.57 84.1368,-156.357"/>
<text text-anchor="middle" x="135" y="-191.3" font-family="Times,serif" font-size="14.00">query_task</text>
</g>
<!-- remote_task2 -->
<g id="node10" class="node"><title>remote_task2</title>
<ellipse fill="none" stroke="black" cx="205" cy="-130" rx="57.2927" ry="18"/>
<text text-anchor="middle" x="205" y="-126.3" font-family="Times,serif" font-size="14.00">remote task2</text>
</g>
<!-- remote_cmd_kill&#45;&gt;remote_task2 -->
<g id="edge5" class="edge"><title>remote_cmd_kill&#45;&gt;remote_task2</title>
<path fill="none" stroke="black" d="M158.837,-221.648C167.75,-204.146 181.615,-176.921 191.825,-156.871"/>
<polygon fill="black" stroke="black" points="194.947,-158.452 196.367,-147.953 188.71,-155.276 194.947,-158.452"/>
<text text-anchor="middle" x="207" y="-191.3" font-family="Times,serif" font-size="14.00">query_task</text>
</g>
<!-- job_queue -->
<g id="node11" class="node"><title>job_queue</title>
<ellipse fill="none" stroke="black" cx="342" cy="-130" rx="49.0941" ry="18"/>
<text text-anchor="middle" x="342" y="-126.3" font-family="Times,serif" font-size="14.00">Job Queue</text>
</g>
<!-- remote_job_kill1&#45;&gt;job_queue -->
<g id="edge6" class="edge"><title>remote_job_kill1&#45;&gt;job_queue</title>
<path fill="none" stroke="black" d="M281.383,-220.679C293.377,-202.935 311.659,-175.888 325.01,-156.137"/>
<polygon fill="black" stroke="black" points="328.056,-157.88 330.756,-147.635 322.256,-153.96 328.056,-157.88"/>
</g>
<!-- remote_job_kill2&#45;&gt;job_queue -->
<g id="edge7" class="edge"><title>remote_job_kill2&#45;&gt;job_queue</title>
<path fill="none" stroke="black" d="M361.098,-220.679C357.426,-203.437 351.884,-177.41 347.714,-157.829"/>
<polygon fill="black" stroke="black" points="351.123,-157.036 345.617,-147.985 344.277,-158.494 351.123,-157.036"/>
</g>
<!-- remote_job1 -->
<g id="node12" class="node"><title>remote_job1</title>
<ellipse fill="none" stroke="black" cx="305" cy="-42" rx="27" ry="18"/>
<text text-anchor="middle" x="305" y="-38.3" font-family="Times,serif" font-size="14.00">job1</text>
</g>
<!-- job_queue&#45;&gt;remote_job1 -->
<g id="edge8" class="edge"><title>job_queue&#45;&gt;remote_job1</title>
<path fill="none" stroke="black" d="M324.87,-112.934C319.949,-107.403 315.085,-100.861 312,-94 308.687,-86.632 306.841,-78.1089 305.839,-70.165"/>
<polygon fill="black" stroke="black" points="309.325,-69.853 304.956,-60.2013 302.353,-70.4715 309.325,-69.853"/>
<text text-anchor="middle" x="332.5" y="-82.3" font-family="Times,serif" font-size="14.00">kill job</text>
</g>
<!-- remote_job2 -->
<g id="node13" class="node"><title>remote_job2</title>
<ellipse fill="none" stroke="black" cx="377" cy="-42" rx="27" ry="18"/>
<text text-anchor="middle" x="377" y="-38.3" font-family="Times,serif" font-size="14.00">job2</text>
</g>
<!-- job_queue&#45;&gt;remote_job2 -->
<g id="edge9" class="edge"><title>job_queue&#45;&gt;remote_job2</title>
<path fill="none" stroke="black" d="M348.915,-112.009C353.884,-99.7981 360.678,-83.1047 366.339,-69.1952"/>
<polygon fill="black" stroke="black" points="369.691,-70.2446 370.219,-59.6629 363.207,-67.6059 369.691,-70.2446"/>
<text text-anchor="middle" x="383.5" y="-82.3" font-family="Times,serif" font-size="14.00">kill job</text>
</g>
</g>
</svg>
