<?xml version="1.0" encoding="UTF-8" standalone="no"?>
<!DOCTYPE svg PUBLIC "-//W3C//DTD SVG 1.1//EN"
 "http://www.w3.org/Graphics/SVG/1.1/DTD/svg11.dtd">
<!-- Generated by graphviz version 2.36.0 (20140111.2315)
 -->
<!-- Title: job_queue Pages: 1 -->
<svg width="786pt" height="483pt"
 viewBox="0.00 0.00 786.00 483.00" xmlns="http://www.w3.org/2000/svg" xmlns:xlink="http://www.w3.org/1999/xlink">
<g id="graph0" class="graph" transform="scale(1 1) rotate(0) translate(4 479)">
<title>job_queue</title>
<polygon fill="white" stroke="none" points="-4,4 -4,-479 782,-479 782,4 -4,4"/>
<g id="clust4" class="cluster"><title>cluster_with_task</title>
<polygon fill="none" stroke="black" points="328,-8 328,-467 770,-467 770,-8 328,-8"/>
<text text-anchor="middle" x="549" y="-451.8" font-family="Times,serif" font-size="14.00">SoS step with task</text>
</g>
<g id="clust5" class="cluster"><title>cluster_3</title>
<polygon fill="none" stroke="black" stroke-dasharray="1,5" points="336,-16 336,-436 525,-436 525,-16 336,-16"/>
<text text-anchor="middle" x="430.5" y="-420.8" font-family="Times,serif" font-size="14.00">Master SoS Process</text>
</g>
<g id="clust7" class="cluster"><title>cluster_5</title>
<polygon fill="none" stroke="black" stroke-dasharray="1,5" points="344,-24 344,-187 517,-187 517,-24 344,-24"/>
<text text-anchor="middle" x="430.5" y="-171.8" font-family="Times,serif" font-size="14.00">Task Engine (with workers)</text>
</g>
<g id="clust6" class="cluster"><title>cluster_4</title>
<polygon fill="none" stroke="black" stroke-dasharray="1,5" points="390,-221 390,-405 517,-405 517,-221 390,-221"/>
<text text-anchor="middle" x="453.5" y="-389.8" font-family="Times,serif" font-size="14.00">Workflow Executor</text>
</g>
<g id="clust8" class="cluster"><title>cluster_6</title>
<polygon fill="none" stroke="black" stroke-dasharray="1,5" points="533,-24 533,-296 762,-296 762,-24 533,-24"/>
<text text-anchor="middle" x="647.5" y="-280.8" font-family="Times,serif" font-size="14.00">SoS Worker</text>
</g>
<g id="clust1" class="cluster"><title>cluster_regular</title>
<polygon fill="none" stroke="black" points="8,-16 8,-436 320,-436 320,-16 8,-16"/>
<text text-anchor="middle" x="164" y="-420.8" font-family="Times,serif" font-size="14.00">SoS step without task</text>
</g>
<g id="clust3" class="cluster"><title>cluster_2</title>
<polygon fill="none" stroke="black" stroke-dasharray="1,5" points="152,-24 152,-296 312,-296 312,-24 152,-24"/>
<text text-anchor="middle" x="232" y="-280.8" font-family="Times,serif" font-size="14.00">SoS Worker</text>
</g>
<g id="clust2" class="cluster"><title>cluster_1</title>
<polygon fill="none" stroke="black" stroke-dasharray="1,5" points="16,-221 16,-405 144,-405 144,-221 16,-221"/>
<text text-anchor="middle" x="80" y="-389.8" font-family="Times,serif" font-size="14.00">Master SoS Process</text>
</g>
<!-- step1 -->
<g id="node1" class="node"><title>step1</title>
<ellipse fill="none" stroke="black" cx="105" cy="-356" rx="29.3479" ry="18"/>
<text text-anchor="middle" x="105" y="-352.3" font-family="Times,serif" font-size="14.00">step1</text>
</g>
<!-- step2 -->
<g id="node2" class="node"><title>step2</title>
<ellipse fill="none" stroke="black" cx="74" cy="-247" rx="29.3479" ry="18"/>
<text text-anchor="middle" x="74" y="-243.3" font-family="Times,serif" font-size="14.00">step2</text>
</g>
<!-- step1&#45;&gt;step2 -->
<g id="edge1" class="edge"><title>step1&#45;&gt;step2</title>
<path fill="none" stroke="black" stroke-dasharray="1,5" d="M89.2198,-340.42C84.0138,-334.62 78.8343,-327.533 76,-320 70.7188,-305.963 69.9471,-289.275 70.6187,-275.501"/>
<polygon fill="black" stroke="black" points="74.1348,-275.424 71.4082,-265.186 67.1552,-274.889 74.1348,-275.424"/>
<text text-anchor="middle" x="80" y="-308.3" font-family="Times,serif" font-size="14.00">6</text>
</g>
<!-- worker1 -->
<g id="node3" class="node"><title>worker1</title>
<polygon fill="none" stroke="black" points="244,-265 178,-265 178,-229 244,-229 244,-265"/>
<text text-anchor="middle" x="211" y="-243.3" font-family="Times,serif" font-size="14.00">Manager</text>
</g>
<!-- step1&#45;&gt;worker1 -->
<g id="edge5" class="edge"><title>step1&#45;&gt;worker1</title>
<path fill="none" stroke="black" d="M100.332,-337.954C98.4344,-327.022 98.231,-313.203 106,-304 118.257,-289.48 130.647,-303.742 148,-296 161.409,-290.018 174.593,-280.675 185.406,-271.815"/>
<polygon fill="black" stroke="black" points="187.833,-274.346 193.178,-265.199 183.295,-269.016 187.833,-274.346"/>
<text text-anchor="middle" x="147.5" y="-308.3" font-family="Times,serif" font-size="14.00">1. queue (step)</text>
</g>
<!-- worker1&#45;&gt;step1 -->
<g id="edge6" class="edge"><title>worker1&#45;&gt;step1</title>
<path fill="none" stroke="black" d="M209.857,-265.153C207.933,-281.159 202.78,-304.795 189,-320 176.876,-333.378 158.836,-341.787 142.579,-346.997"/>
<polygon fill="black" stroke="black" points="141.387,-343.698 132.756,-349.844 143.335,-350.422 141.387,-343.698"/>
<text text-anchor="middle" x="241.5" y="-308.3" font-family="Times,serif" font-size="14.00">5. pipe (result)</text>
</g>
<!-- statement1 -->
<g id="node4" class="node"><title>statement1</title>
<ellipse fill="none" stroke="black" cx="210" cy="-138" rx="50.0684" ry="18"/>
<text text-anchor="middle" x="210" y="-134.3" font-family="Times,serif" font-size="14.00">statement1</text>
</g>
<!-- worker1&#45;&gt;statement1 -->
<g id="edge2" class="edge"><title>worker1&#45;&gt;statement1</title>
<path fill="none" stroke="black" d="M210.839,-228.809C210.682,-211.961 210.439,-186.018 210.256,-166.339"/>
<polygon fill="black" stroke="black" points="213.754,-166.116 210.16,-156.149 206.754,-166.181 213.754,-166.116"/>
<text text-anchor="middle" x="215" y="-199.3" font-family="Times,serif" font-size="14.00">2</text>
</g>
<!-- statement2 -->
<g id="node5" class="node"><title>statement2</title>
<ellipse fill="none" stroke="black" cx="232" cy="-50" rx="50.0684" ry="18"/>
<text text-anchor="middle" x="232" y="-46.3" font-family="Times,serif" font-size="14.00">statement2</text>
</g>
<!-- statement1&#45;&gt;statement2 -->
<g id="edge3" class="edge"><title>statement1&#45;&gt;statement2</title>
<path fill="none" stroke="black" d="M214.346,-120.009C217.42,-107.995 221.603,-91.641 225.127,-77.8691"/>
<polygon fill="black" stroke="black" points="228.575,-78.511 227.663,-67.9555 221.793,-76.7761 228.575,-78.511"/>
<text text-anchor="middle" x="227" y="-90.3" font-family="Times,serif" font-size="14.00">3</text>
</g>
<!-- statement2&#45;&gt;worker1 -->
<g id="edge4" class="edge"><title>statement2&#45;&gt;worker1</title>
<path fill="none" stroke="black" d="M243.945,-67.6096C252.811,-81.0165 264.165,-100.753 269,-120 276.255,-148.881 280.278,-159.44 269,-187 263.538,-200.348 253.438,-212.301 243.179,-221.901"/>
<polygon fill="black" stroke="black" points="240.572,-219.533 235.377,-228.767 245.196,-224.788 240.572,-219.533"/>
<text text-anchor="middle" x="281" y="-134.3" font-family="Times,serif" font-size="14.00">4</text>
</g>
<!-- step3 -->
<g id="node6" class="node"><title>step3</title>
<ellipse fill="none" stroke="black" cx="479" cy="-356" rx="29.3479" ry="18"/>
<text text-anchor="middle" x="479" y="-352.3" font-family="Times,serif" font-size="14.00">step1</text>
</g>
<!-- step4 -->
<g id="node7" class="node"><title>step4</title>
<ellipse fill="none" stroke="black" cx="439" cy="-247" rx="29.3479" ry="18"/>
<text text-anchor="middle" x="439" y="-243.3" font-family="Times,serif" font-size="14.00">step2</text>
</g>
<!-- step3&#45;&gt;step4 -->
<g id="edge7" class="edge"><title>step3&#45;&gt;step4</title>
<path fill="none" stroke="black" stroke-dasharray="1,5" d="M460.351,-341.693C453.661,-335.854 446.831,-328.408 443,-320 436.672,-306.11 435.464,-289.119 435.935,-275.132"/>
<polygon fill="black" stroke="black" points="439.43,-275.322 436.565,-265.122 432.443,-274.882 439.43,-275.322"/>
<text text-anchor="middle" x="450.5" y="-308.3" font-family="Times,serif" font-size="14.00">10</text>
</g>
<!-- worker2 -->
<g id="node10" class="node"><title>worker2</title>
<polygon fill="none" stroke="black" points="620,-265 554,-265 554,-229 620,-229 620,-265"/>
<text text-anchor="middle" x="587" y="-243.3" font-family="Times,serif" font-size="14.00">Manager</text>
</g>
<!-- step3&#45;&gt;worker2 -->
<g id="edge14" class="edge"><title>step3&#45;&gt;worker2</title>
<path fill="none" stroke="black" d="M474.751,-337.931C473.103,-326.989 473.179,-313.168 481,-304 492.767,-290.207 504.395,-303.278 521,-296 534.992,-289.867 548.907,-280.385 560.326,-271.463"/>
<polygon fill="black" stroke="black" points="562.592,-274.131 568.166,-265.121 558.19,-268.689 562.592,-274.131"/>
<text text-anchor="middle" x="522.5" y="-308.3" font-family="Times,serif" font-size="14.00">1. queue (step)</text>
</g>
<!-- task_engine -->
<g id="node8" class="node"><title>task_engine</title>
<polygon fill="none" stroke="black" points="477.25,-156 390.75,-156 390.75,-120 477.25,-120 477.25,-156"/>
<text text-anchor="middle" x="434" y="-134.3" font-family="Times,serif" font-size="14.00">Task Engine</text>
</g>
<!-- step4&#45;&gt;task_engine -->
<!-- task_worker -->
<g id="node9" class="node"><title>task_worker</title>
<ellipse fill="none" stroke="black" cx="408" cy="-50" rx="55.3436" ry="18"/>
<text text-anchor="middle" x="408" y="-46.3" font-family="Times,serif" font-size="14.00">task_worker</text>
</g>
<!-- task_engine&#45;&gt;task_worker -->
<g id="edge8" class="edge"><title>task_engine&#45;&gt;task_worker</title>
<path fill="none" stroke="black" d="M391.361,-119.808C384.413,-115.084 378.144,-109.215 374,-102 368.644,-92.6744 372.815,-82.7636 379.827,-74.183"/>
<polygon fill="black" stroke="black" points="382.545,-76.4026 386.872,-66.7318 377.459,-71.5931 382.545,-76.4026"/>
<text text-anchor="middle" x="378" y="-90.3" font-family="Times,serif" font-size="14.00">5</text>
</g>
<!-- task -->
<g id="node12" class="node"><title>task</title>
<ellipse fill="none" stroke="black" cx="615" cy="-50" rx="27" ry="18"/>
<text text-anchor="middle" x="615" y="-46.3" font-family="Times,serif" font-size="14.00">task</text>
</g>
<!-- task_engine&#45;&gt;task -->
<g id="edge17" class="edge"><title>task_engine&#45;&gt;task</title>
<path fill="none" stroke="black" d="M427.442,-119.53C424.599,-108.7 423.422,-95.1556 431,-86 432.188,-84.5653 525.988,-67.2448 579.182,-57.5206"/>
<polygon fill="black" stroke="black" points="580.031,-60.9235 589.24,-55.684 578.774,-54.0373 580.031,-60.9235"/>
<text text-anchor="middle" x="485.5" y="-90.3" font-family="Times,serif" font-size="14.00">7. pipe (task result)</text>
</g>
<!-- task_worker&#45;&gt;task_engine -->
<g id="edge9" class="edge"><title>task_worker&#45;&gt;task_engine</title>
<path fill="none" stroke="black" d="M403.694,-68.0193C401.925,-78.1708 401.09,-91.1529 405,-102 406.187,-105.292 407.832,-108.494 409.742,-111.537"/>
<polygon fill="black" stroke="black" points="406.938,-113.632 415.664,-119.642 412.59,-109.503 406.938,-113.632"/>
<text text-anchor="middle" x="409" y="-90.3" font-family="Times,serif" font-size="14.00">6</text>
</g>
<!-- worker2&#45;&gt;step3 -->
<g id="edge15" class="edge"><title>worker2&#45;&gt;step3</title>
<path fill="none" stroke="black" d="M585.606,-265.178C583.45,-281.203 577.963,-304.851 564,-320 551.639,-333.41 533.375,-341.823 516.942,-347.027"/>
<polygon fill="black" stroke="black" points="515.666,-343.751 507.016,-349.868 517.593,-350.481 515.666,-343.751"/>
<text text-anchor="middle" x="629.5" y="-308.3" font-family="Times,serif" font-size="14.00">9. pipe (step result)</text>
</g>
<!-- statement4 -->
<g id="node11" class="node"><title>statement4</title>
<ellipse fill="none" stroke="black" cx="591" cy="-138" rx="50.0684" ry="18"/>
<text text-anchor="middle" x="591" y="-134.3" font-family="Times,serif" font-size="14.00">statement1</text>
</g>
<!-- worker2&#45;&gt;statement4 -->
<g id="edge10" class="edge"><title>worker2&#45;&gt;statement4</title>
<path fill="none" stroke="black" d="M587.643,-228.809C588.272,-211.961 589.242,-186.018 589.978,-166.339"/>
<polygon fill="black" stroke="black" points="593.483,-166.273 590.359,-156.149 586.488,-166.011 593.483,-166.273"/>
<text text-anchor="middle" x="593" y="-199.3" font-family="Times,serif" font-size="14.00">2</text>
</g>
<!-- statement4&#45;&gt;task -->
<g id="edge11" class="edge"><title>statement4&#45;&gt;task</title>
<path fill="none" stroke="black" d="M620.201,-123.305C628.437,-117.9 636.4,-110.834 641,-102 645.869,-92.6477 642.237,-82.2878 636.314,-73.3617"/>
<polygon fill="black" stroke="black" points="639.004,-71.1187 630.135,-65.3228 633.454,-75.3844 639.004,-71.1187"/>
<text text-anchor="middle" x="648" y="-90.3" font-family="Times,serif" font-size="14.00">3</text>
</g>
<!-- task&#45;&gt;task_engine -->
<g id="edge16" class="edge"><title>task&#45;&gt;task_engine</title>
<path fill="none" stroke="black" d="M595.886,-63.1588C585.907,-69.6823 573.6,-78.006 563,-86 554.186,-92.6473 553.667,-96.6688 544,-102 526.447,-111.68 505.818,-119.139 487.196,-124.634"/>
<polygon fill="black" stroke="black" points="486.051,-121.321 477.38,-127.409 487.955,-128.057 486.051,-121.321"/>
<text text-anchor="middle" x="600" y="-90.3" font-family="Times,serif" font-size="14.00">4. pipe (task)</text>
</g>
<!-- task&#45;&gt;worker2 -->
<g id="edge12" class="edge"><title>task&#45;&gt;worker2</title>
<path fill="none" stroke="black" d="M634.726,-62.4168C642.913,-68.3111 651.532,-76.3114 656,-86 674.831,-126.835 669.329,-146.398 650,-187 643.469,-200.718 632.229,-212.825 621.035,-222.444"/>
<polygon fill="black" stroke="black" points="618.519,-219.978 612.96,-228.997 622.93,-225.414 618.519,-219.978"/>
<text text-anchor="middle" x="706.5" y="-134.3" font-family="Times,serif" font-size="14.00">8 (task result)</text>
</g>
</g>
</svg>
