<?xml version="1.0" encoding="UTF-8" standalone="no"?>
<!DOCTYPE svg PUBLIC "-//W3C//DTD SVG 1.1//EN"
 "http://www.w3.org/Graphics/SVG/1.1/DTD/svg11.dtd">
<!-- Generated by graphviz version 2.36.0 (20140111.2315)
 -->
<!-- Title: job_queue Pages: 1 -->
<svg width="878pt" height="555pt"
 viewBox="0.00 0.00 878.00 555.00" xmlns="http://www.w3.org/2000/svg" xmlns:xlink="http://www.w3.org/1999/xlink">
<g id="graph0" class="graph" transform="scale(1 1) rotate(0) translate(4 551)">
<title>job_queue</title>
<polygon fill="white" stroke="none" points="-4,4 -4,-551 874,-551 874,4 -4,4"/>
<text text-anchor="middle" x="435" y="-7.8" font-family="Times,serif" font-size="14.00">SoS step with task</text>
<g id="clust6" class="cluster"><title>cluster_8</title>
<polygon fill="none" stroke="black" points="631,-39 631,-311 862,-311 862,-39 631,-39"/>
<text text-anchor="middle" x="746.5" y="-295.8" font-family="Times,serif" font-size="14.00">Step Worker 2</text>
</g>
<g id="clust5" class="cluster"><title>cluster_7</title>
<polygon fill="none" stroke="black" points="116,-39 116,-202 318,-202 318,-39 116,-39"/>
<text text-anchor="middle" x="217" y="-186.8" font-family="Times,serif" font-size="14.00">Workflow Executor (with queue)</text>
</g>
<g id="clust1" class="cluster"><title>cluster_3</title>
<polygon fill="none" stroke="black" points="332,-31 332,-539 610,-539 610,-31 332,-31"/>
<text text-anchor="middle" x="471" y="-523.8" font-family="Times,serif" font-size="14.00">Master SoS Process</text>
</g>
<g id="clust2" class="cluster"><title>cluster_4</title>
<polygon fill="none" stroke="black" stroke-dasharray="1,5" points="340,-236 340,-508 602,-508 602,-236 340,-236"/>
<text text-anchor="middle" x="471" y="-492.8" font-family="Times,serif" font-size="14.00">Master Workflow Executor (without queue)</text>
</g>
<g id="clust3" class="cluster"><title>cluster_5</title>
<polygon fill="none" stroke="black" stroke-dasharray="1,5" points="397,-39 397,-202 570,-202 570,-39 397,-39"/>
<text text-anchor="middle" x="483.5" y="-186.8" font-family="Times,serif" font-size="14.00">Task Engine (with workers)</text>
</g>
<g id="clust4" class="cluster"><title>cluster_6</title>
<polygon fill="none" stroke="black" points="8,-236 8,-508 276,-508 276,-236 8,-236"/>
<text text-anchor="middle" x="142" y="-492.8" font-family="Times,serif" font-size="14.00">Step Worker</text>
</g>
<!-- step1 -->
<g id="node1" class="node"><title>step1</title>
<ellipse fill="none" stroke="black" cx="401" cy="-459" rx="29.3479" ry="18"/>
<text text-anchor="middle" x="401" y="-455.3" font-family="Times,serif" font-size="14.00">step1</text>
</g>
<!-- step2 -->
<g id="node2" class="node"><title>step2</title>
<ellipse fill="none" stroke="black" cx="401" cy="-371" rx="29.3479" ry="18"/>
<text text-anchor="middle" x="401" y="-367.3" font-family="Times,serif" font-size="14.00">step2</text>
</g>
<!-- step1&#45;&gt;step2 -->
<g id="edge1" class="edge"><title>step1&#45;&gt;step2</title>
<path fill="none" stroke="black" stroke-dasharray="1,5" d="M401,-440.597C401,-428.746 401,-412.817 401,-399.292"/>
<polygon fill="black" stroke="black" points="404.5,-399.084 401,-389.084 397.5,-399.084 404.5,-399.084"/>
<text text-anchor="middle" x="408.5" y="-411.3" font-family="Times,serif" font-size="14.00">20</text>
</g>
<!-- worker2 -->
<g id="node6" class="node"><title>worker2</title>
<polygon fill="none" stroke="black" points="142,-477 76,-477 76,-441 142,-441 142,-477"/>
<text text-anchor="middle" x="109" y="-455.3" font-family="Times,serif" font-size="14.00">Manager</text>
</g>
<!-- step1&#45;&gt;worker2 -->
<g id="edge13" class="edge"><title>step1&#45;&gt;worker2</title>
<path fill="none" stroke="black" d="M371.327,-459C319.587,-459 212.652,-459 152.516,-459"/>
<polygon fill="black" stroke="black" points="152.212,-455.5 142.212,-459 152.212,-462.5 152.212,-455.5"/>
<text text-anchor="middle" x="256.551" y="-465.8" font-family="Times,serif" font-size="14.00">1. queue (step)</text>
</g>
<!-- executor -->
<g id="node3" class="node"><title>executor</title>
<polygon fill="none" stroke="black" points="433.25,-280 368.75,-280 368.75,-244 433.25,-244 433.25,-280"/>
<text text-anchor="middle" x="401" y="-258.3" font-family="Times,serif" font-size="14.00">executor</text>
</g>
<!-- step2&#45;&gt;executor -->
<!-- task_engine -->
<g id="node4" class="node"><title>task_engine</title>
<polygon fill="none" stroke="black" points="504.25,-171 417.75,-171 417.75,-135 504.25,-135 504.25,-171"/>
<text text-anchor="middle" x="461" y="-149.3" font-family="Times,serif" font-size="14.00">Task Engine</text>
</g>
<!-- executor&#45;&gt;task_engine -->
<!-- workflow -->
<g id="node8" class="node"><title>workflow</title>
<ellipse fill="none" stroke="black" cx="138" cy="-262" rx="107.336" ry="18"/>
<text text-anchor="middle" x="138" y="-258.3" font-family="Times,serif" font-size="14.00">nested workflow (sos_run)</text>
</g>
<!-- executor&#45;&gt;workflow -->
<!-- wfworker -->
<g id="node9" class="node"><title>wfworker</title>
<polygon fill="none" stroke="black" points="219.25,-171 152.75,-171 152.75,-135 219.25,-135 219.25,-171"/>
<text text-anchor="middle" x="186" y="-149.3" font-family="Times,serif" font-size="14.00">Executor</text>
</g>
<!-- executor&#45;&gt;wfworker -->
<g id="edge17" class="edge"><title>executor&#45;&gt;wfworker</title>
<path fill="none" stroke="black" d="M368.545,-253.405C344.269,-247.942 310.199,-240.732 280,-236 259.465,-232.782 200.997,-241.367 187,-226 176.193,-214.136 175.973,-196.065 178.44,-180.996"/>
<polygon fill="black" stroke="black" points="181.877,-181.658 180.48,-171.156 175.023,-180.237 181.877,-181.658"/>
<text text-anchor="middle" x="244" y="-214.3" font-family="Times,serif" font-size="14.00">5. queue (workflow)</text>
</g>
<!-- worker3 -->
<g id="node11" class="node"><title>worker3</title>
<polygon fill="none" stroke="black" points="772,-280 706,-280 706,-244 772,-244 772,-280"/>
<text text-anchor="middle" x="739" y="-258.3" font-family="Times,serif" font-size="14.00">Manager</text>
</g>
<!-- executor&#45;&gt;worker3 -->
<g id="edge21" class="edge"><title>executor&#45;&gt;worker3</title>
<path fill="none" stroke="black" d="M433.409,-262C494.546,-262 626.914,-262 695.632,-262"/>
<polygon fill="black" stroke="black" points="695.693,-265.5 705.693,-262 695.693,-258.5 695.693,-265.5"/>
<text text-anchor="middle" x="569.5" y="-268.8" font-family="Times,serif" font-size="14.00">8. queue (step)</text>
</g>
<!-- task_worker -->
<g id="node5" class="node"><title>task_worker</title>
<ellipse fill="none" stroke="black" cx="461" cy="-65" rx="55.3436" ry="18"/>
<text text-anchor="middle" x="461" y="-61.3" font-family="Times,serif" font-size="14.00">task_worker</text>
</g>
<!-- task_engine&#45;&gt;task_worker -->
<g id="edge3" class="edge"><title>task_engine&#45;&gt;task_worker</title>
<path fill="none" stroke="black" d="M436.931,-134.702C431.694,-129.644 426.867,-123.66 424,-117 419.727,-107.077 424.259,-97.2195 431.437,-88.8541"/>
<polygon fill="black" stroke="black" points="434.042,-91.1978 438.596,-81.6319 429.071,-86.2696 434.042,-91.1978"/>
<text text-anchor="middle" x="431.5" y="-105.3" font-family="Times,serif" font-size="14.00">12</text>
</g>
<!-- task -->
<g id="node13" class="node"><title>task</title>
<ellipse fill="none" stroke="black" cx="693" cy="-65" rx="27" ry="18"/>
<text text-anchor="middle" x="693" y="-61.3" font-family="Times,serif" font-size="14.00">task</text>
</g>
<!-- task_engine&#45;&gt;task -->
<g id="edge19" class="edge"><title>task_engine&#45;&gt;task</title>
<path fill="none" stroke="black" d="M468.514,-134.6C474.347,-123.222 483.544,-109.029 496,-101 509.31,-92.4204 603.605,-78.3059 656.765,-70.8942"/>
<polygon fill="black" stroke="black" points="657.386,-74.3417 666.813,-69.5048 656.427,-67.4077 657.386,-74.3417"/>
<text text-anchor="middle" x="554" y="-105.3" font-family="Times,serif" font-size="14.00">14. pipe (task result)</text>
</g>
<!-- task_worker&#45;&gt;task_engine -->
<g id="edge4" class="edge"><title>task_worker&#45;&gt;task_engine</title>
<path fill="none" stroke="black" d="M461,-83.084C461,-94.8607 461,-110.774 461,-124.342"/>
<polygon fill="black" stroke="black" points="457.5,-124.597 461,-134.597 464.5,-124.597 457.5,-124.597"/>
<text text-anchor="middle" x="468.5" y="-105.3" font-family="Times,serif" font-size="14.00">13</text>
</g>
<!-- worker2&#45;&gt;step1 -->
<g id="edge14" class="edge"><title>worker2&#45;&gt;step1</title>
<path fill="none" stroke="black" d="M142.078,-459C215.09,-459 288.102,-459 361.114,-459"/>
<polygon fill="black" stroke="black" points="361.416,-462.5 371.416,-459 361.416,-455.5 361.416,-462.5"/>
</g>
<!-- statement4 -->
<g id="node7" class="node"><title>statement4</title>
<ellipse fill="none" stroke="black" cx="66" cy="-371" rx="50.0684" ry="18"/>
<text text-anchor="middle" x="66" y="-367.3" font-family="Times,serif" font-size="14.00">statement1</text>
</g>
<!-- worker2&#45;&gt;statement4 -->
<g id="edge5" class="edge"><title>worker2&#45;&gt;statement4</title>
<path fill="none" stroke="black" d="M100.298,-440.597C94.1571,-428.314 85.8254,-411.651 78.9117,-397.823"/>
<polygon fill="black" stroke="black" points="81.9988,-396.171 74.3961,-388.792 75.7378,-399.302 81.9988,-396.171"/>
<text text-anchor="middle" x="96" y="-411.3" font-family="Times,serif" font-size="14.00">2</text>
</g>
<!-- statement4&#45;&gt;workflow -->
<g id="edge6" class="edge"><title>statement4&#45;&gt;workflow</title>
<path fill="none" stroke="black" d="M77.25,-353.281C88.9638,-335.873 107.454,-308.395 120.961,-288.323"/>
<polygon fill="black" stroke="black" points="123.912,-290.205 126.591,-279.954 118.105,-286.297 123.912,-290.205"/>
<text text-anchor="middle" x="104" y="-323.3" font-family="Times,serif" font-size="14.00">3</text>
</g>
<!-- workflow&#45;&gt;executor -->
<g id="edge15" class="edge"><title>workflow&#45;&gt;executor</title>
<path fill="none" stroke="black" d="M245.731,-262C285.323,-262 327.888,-262 358.42,-262"/>
<polygon fill="black" stroke="black" points="358.693,-265.5 368.693,-262 358.693,-258.5 358.693,-265.5"/>
<text text-anchor="middle" x="306.75" y="-268.8" font-family="Times,serif" font-size="14.00">4. pipe (workflow)</text>
</g>
<!-- workflow&#45;&gt;worker2 -->
<g id="edge7" class="edge"><title>workflow&#45;&gt;worker2</title>
<path fill="none" stroke="black" d="M136.909,-280.21C135.211,-304.556 131.442,-350.39 125,-389 122.676,-402.93 119.217,-418.248 116.109,-430.905"/>
<polygon fill="black" stroke="black" points="112.66,-430.271 113.614,-440.822 119.448,-431.979 112.66,-430.271"/>
<text text-anchor="middle" x="188" y="-367.3" font-family="Times,serif" font-size="14.00">19 (workflow result)</text>
</g>
<!-- workflow&#45;&gt;wfworker -->
<!-- step3 -->
<g id="node10" class="node"><title>step3</title>
<ellipse fill="none" stroke="black" cx="243" cy="-65" rx="27" ry="18"/>
<text text-anchor="middle" x="243" y="-61.3" font-family="Times,serif" font-size="14.00">step</text>
</g>
<!-- wfworker&#45;&gt;step3 -->
<g id="edge8" class="edge"><title>wfworker&#45;&gt;step3</title>
<path fill="none" stroke="black" stroke-dasharray="1,5" d="M190.159,-134.982C193.211,-124.589 198.045,-111.353 205,-101 208.611,-95.6256 213.206,-90.4991 217.945,-85.9082"/>
<polygon fill="black" stroke="black" points="220.319,-88.48 225.387,-79.1759 215.623,-83.2888 220.319,-88.48"/>
<text text-anchor="middle" x="253" y="-105.3" font-family="Times,serif" font-size="14.00">6. start workflow</text>
</g>
<!-- step3&#45;&gt;executor -->
<g id="edge20" class="edge"><title>step3&#45;&gt;executor</title>
<path fill="none" stroke="black" d="M266.187,-74.4621C278.426,-80.1178 292.607,-88.7873 301,-101 326.825,-138.578 294.713,-163.41 319,-202 328.918,-217.758 344.712,-230.593 359.803,-240.219"/>
<polygon fill="black" stroke="black" points="358.189,-243.334 368.557,-245.514 361.812,-237.344 358.189,-243.334"/>
<text text-anchor="middle" x="356" y="-149.3" font-family="Times,serif" font-size="14.00">7. pipe (step)</text>
</g>
<!-- statement5 -->
<g id="node12" class="node"><title>statement5</title>
<ellipse fill="none" stroke="black" cx="689" cy="-153" rx="50.0684" ry="18"/>
<text text-anchor="middle" x="689" y="-149.3" font-family="Times,serif" font-size="14.00">statement1</text>
</g>
<!-- worker3&#45;&gt;statement5 -->
<g id="edge9" class="edge"><title>worker3&#45;&gt;statement5</title>
<path fill="none" stroke="black" d="M718.51,-243.678C713.432,-238.465 708.459,-232.412 705,-226 697.587,-212.26 693.606,-195.277 691.469,-181.256"/>
<polygon fill="black" stroke="black" points="694.924,-180.681 690.168,-171.214 687.982,-181.581 694.924,-180.681"/>
<text text-anchor="middle" x="737.5" y="-214.3" font-family="Times,serif" font-size="14.00">9. start step</text>
</g>
<!-- statement5&#45;&gt;task -->
<g id="edge10" class="edge"><title>statement5&#45;&gt;task</title>
<path fill="none" stroke="black" d="M707.607,-135.909C712.604,-130.467 717.352,-123.983 720,-117 723.676,-107.305 719.967,-97.1125 714.242,-88.4102"/>
<polygon fill="black" stroke="black" points="716.89,-86.1106 708.046,-80.2781 711.323,-90.3533 716.89,-86.1106"/>
<text text-anchor="middle" x="729.5" y="-105.3" font-family="Times,serif" font-size="14.00">10</text>
</g>
<!-- task&#45;&gt;task_engine -->
<g id="edge18" class="edge"><title>task&#45;&gt;task_engine</title>
<path fill="none" stroke="black" d="M672.911,-77.081C661.513,-83.6225 647.144,-92.3043 635,-101 626.024,-107.427 625.887,-112.089 616,-117 584.257,-132.766 545.336,-141.523 514.437,-146.335"/>
<polygon fill="black" stroke="black" points="513.675,-142.909 504.287,-147.82 514.689,-149.835 513.675,-142.909"/>
<text text-anchor="middle" x="675.5" y="-105.3" font-family="Times,serif" font-size="14.00">11. pipe (task)</text>
</g>
<!-- task&#45;&gt;worker3 -->
<g id="edge22" class="edge"><title>task&#45;&gt;worker3</title>
<path fill="none" stroke="black" d="M713.813,-76.7928C723.389,-82.7378 734.124,-90.9585 741,-101 769.322,-142.363 763.501,-160.293 770,-210 770.922,-217.051 772.521,-219.351 770,-226 768.724,-229.366 766.96,-232.615 764.915,-235.689"/>
<polygon fill="black" stroke="black" points="761.958,-233.789 758.581,-243.831 767.483,-238.087 761.958,-233.789"/>
<text text-anchor="middle" x="807.5" y="-149.3" font-family="Times,serif" font-size="14.00">15. task result</text>
</g>
</g>
</svg>
