<?xml version="1.0" encoding="UTF-8" standalone="no"?>
<!DOCTYPE svg PUBLIC "-//W3C//DTD SVG 1.1//EN"
 "http://www.w3.org/Graphics/SVG/1.1/DTD/svg11.dtd">
<!-- Generated by graphviz version 2.38.0 (20140413.2041)
 -->
<!-- Title: task_status Pages: 1 -->
<svg width="370pt" height="436pt"
 viewBox="0.00 0.00 370.00 436.00" xmlns="http://www.w3.org/2000/svg" xmlns:xlink="http://www.w3.org/1999/xlink">
<g id="graph0" class="graph" transform="scale(1 1) rotate(0) translate(4 432)">
<title>task_status</title>
<polygon fill="white" stroke="none" points="-4,4 -4,-432 366,-432 366,4 -4,4"/>
<g id="clust1" class="cluster"><title>cluster_0</title>
<polygon fill="none" stroke="black" points="8,-8 8,-420 333,-420 333,-8 8,-8"/>
<text text-anchor="middle" x="170.5" y="-404.8" font-family="Times,serif" font-size="14.00">Local</text>
</g>
<g id="clust2" class="cluster"><title>cluster_1</title>
<polygon fill="pink" stroke="pink" points="59,-314 59,-389 169,-389 169,-314 59,-314"/>
<text text-anchor="middle" x="114" y="-373.8" font-family="Times,serif" font-size="14.00">SoS Task Queue</text>
</g>
<!-- pending_task -->
<g id="node1" class="node"><title>pending_task</title>
<ellipse fill="lightgrey" stroke="black" cx="114" cy="-340" rx="40.0939" ry="18"/>
<text text-anchor="middle" x="114" y="-336.3" font-family="Times,serif" font-size="14.00">pending</text>
</g>
<!-- completed_task -->
<g id="node2" class="node"><title>completed_task</title>
<ellipse fill="lightgrey" stroke="black" cx="65" cy="-136" rx="48.9926" ry="18"/>
<text text-anchor="middle" x="65" y="-132.3" font-family="Times,serif" font-size="14.00">completed</text>
</g>
<!-- pending_task&#45;&gt;completed_task -->
<g id="edge5" class="edge"><title>pending_task&#45;&gt;completed_task</title>
<path fill="none" stroke="green" stroke-width="2" d="M94.986,-323.892C77.6822,-308.817 53.3152,-283.927 43,-256 31.6756,-225.34 42.2385,-187.999 52.2696,-163.419"/>
<polygon fill="green" stroke="green" stroke-width="2" points="55.5701,-164.605 56.3268,-154.037 49.1451,-161.826 55.5701,-164.605"/>
<text text-anchor="middle" x="114" y="-241.8" font-family="Times,serif" font-size="14.00">Reuse existing result</text>
<text text-anchor="middle" x="114" y="-226.8" font-family="Times,serif" font-size="14.00">(resume without &#45;s force)</text>
</g>
<!-- running_task -->
<g id="node3" class="node"><title>running_task</title>
<ellipse fill="lightgrey" stroke="black" cx="233" cy="-238" rx="38.9931" ry="18"/>
<text text-anchor="middle" x="233" y="-234.3" font-family="Times,serif" font-size="14.00">running</text>
</g>
<!-- pending_task&#45;&gt;running_task -->
<g id="edge6" class="edge"><title>pending_task&#45;&gt;running_task</title>
<path fill="none" stroke="blue" stroke-width="2" d="M109.107,-321.971C106.103,-307.675 104.578,-287.484 115,-274 133.332,-250.283 151.278,-264.58 180,-256 184.062,-254.787 188.289,-253.49 192.504,-252.174"/>
<polygon fill="blue" stroke="blue" stroke-width="2" points="193.756,-255.449 202.237,-249.098 191.647,-248.774 193.756,-255.449"/>
<text text-anchor="middle" x="171.5" y="-292.8" font-family="Times,serif" font-size="14.00">Running task</text>
<text text-anchor="middle" x="171.5" y="-277.8" font-family="Times,serif" font-size="14.00">(w/o existing result)</text>
</g>
<!-- pending_task&#45;&gt;running_task -->
<!-- result_mismatch -->
<g id="node4" class="node"><title>result_mismatch</title>
<ellipse fill="none" stroke="black" cx="86" cy="-34" rx="69.5877" ry="18"/>
<text text-anchor="middle" x="86" y="-30.3" font-family="Times,serif" font-size="14.00">result&#45;mismatch</text>
</g>
<!-- completed_task&#45;&gt;result_mismatch -->
<g id="edge4" class="edge"><title>completed_task&#45;&gt;result_mismatch</title>
<path fill="none" stroke="red" d="M68.5624,-118.036C71.7905,-102.665 76.602,-79.7522 80.3537,-61.8871"/>
<polygon fill="red" stroke="red" points="83.7902,-62.5527 82.4202,-52.0469 76.9396,-61.1141 83.7902,-62.5527"/>
<text text-anchor="middle" x="123.5" y="-88.8" font-family="Times,serif" font-size="14.00">Result removed</text>
<text text-anchor="middle" x="123.5" y="-73.8" font-family="Times,serif" font-size="14.00">or changed</text>
</g>
<!-- running_task&#45;&gt;completed_task -->
<g id="edge1" class="edge"><title>running_task&#45;&gt;completed_task</title>
<path fill="none" stroke="blue" stroke-width="2" d="M202.31,-226.645C195.033,-224.332 187.272,-221.98 180,-220 144.836,-210.425 129.033,-224.029 100,-202 87.4701,-192.493 78.9103,-177.164 73.3936,-163.779"/>
<polygon fill="blue" stroke="blue" stroke-width="2" points="76.5361,-162.19 69.7527,-154.052 69.9802,-164.644 76.5361,-162.19"/>
<text text-anchor="middle" x="130" y="-190.8" font-family="Times,serif" font-size="14.00">completed</text>
<text text-anchor="middle" x="130" y="-175.8" font-family="Times,serif" font-size="14.00">with result</text>
</g>
<!-- failed_task -->
<g id="node5" class="node"><title>failed_task</title>
<ellipse fill="none" stroke="black" cx="163" cy="-136" rx="31.3957" ry="18"/>
<text text-anchor="middle" x="163" y="-132.3" font-family="Times,serif" font-size="14.00">failed</text>
</g>
<!-- running_task&#45;&gt;failed_task -->
<g id="edge3" class="edge"><title>running_task&#45;&gt;failed_task</title>
<path fill="none" stroke="red" d="M203.634,-225.91C192.702,-220.345 181.211,-212.507 174,-202 166.536,-191.125 163.563,-176.869 162.55,-164.48"/>
<polygon fill="red" stroke="red" points="166.034,-164.042 162.101,-154.205 159.041,-164.348 166.034,-164.042"/>
<text text-anchor="middle" x="204" y="-190.8" font-family="Times,serif" font-size="14.00">failed</text>
<text text-anchor="middle" x="204" y="-175.8" font-family="Times,serif" font-size="14.00">with result</text>
</g>
<!-- aborted_task -->
<g id="node6" class="node"><title>aborted_task</title>
<ellipse fill="none" stroke="black" cx="250" cy="-136" rx="37.8943" ry="18"/>
<text text-anchor="middle" x="250" y="-132.3" font-family="Times,serif" font-size="14.00">aborted</text>
</g>
<!-- running_task&#45;&gt;aborted_task -->
<g id="edge2" class="edge"><title>running_task&#45;&gt;aborted_task</title>
<path fill="none" stroke="red" d="M235.884,-220.036C238.485,-204.736 242.356,-181.966 245.387,-164.138"/>
<polygon fill="red" stroke="red" points="248.876,-164.492 247.102,-154.047 241.976,-163.319 248.876,-164.492"/>
<text text-anchor="middle" x="303" y="-190.8" font-family="Times,serif" font-size="14.00">killed or self&#45;aborted</text>
<text text-anchor="middle" x="303" y="-175.8" font-family="Times,serif" font-size="14.00">without result</text>
</g>
</g>
</svg>
